<svg viewBox="0 0 600 956" fill="none" xmlns="http://www.w3.org/2000/svg">
  <g id="fignu2" class="fignu2" clip-path="url(#clip0_12330_5542)">
    <path id="Vector 479" d="M306 672V956" stroke="url(#paint0_linear_12330_5542)" stroke-width="3"
      stroke-linecap="round" stroke-dasharray="1 10" />
    <g id="Rectangle 4.3" filter="url(#filter0_d_12330_5542)">
      <path
        d="M468 170.821C468 170.368 468.368 170 468.821 170V170C470.181 170 471.284 171.103 471.284 172.463V240.608C471.284 241.968 470.181 243.071 468.821 243.071V243.071C468.368 243.071 468 242.703 468 242.25V170.821Z"
        fill="white" />
    </g>
    <path id="Rectangle 1029"
      d="M140 120C140 118.343 141.343 117 143 117H143.105C143.657 117 144.105 117.448 144.105 118V141.452C144.105 142.004 143.657 142.452 143.105 142.452H143C141.343 142.452 140 141.108 140 139.452V120Z"
      fill="white" />
    <path id="Rectangle 4.1"
      d="M140 163.463C140 162.103 141.103 161 142.463 161H143.284C143.738 161 144.105 161.368 144.105 161.821V204.514C144.105 204.967 143.738 205.335 143.284 205.335H142.463C141.103 205.335 140 204.232 140 202.872V163.463Z"
      fill="white" />
    <path id="Rectangle 4.1_2"
      d="M140 223.463C140 222.103 141.103 221 142.463 221H143.284C143.738 221 144.105 221.368 144.105 221.821V264.514C144.105 264.967 143.738 265.335 143.284 265.335H142.463C141.103 265.335 140 264.232 140 262.872V223.463Z"
      fill="white" />
    <g id="Rectangle 1030" filter="url(#filter1_dddd_12330_5542)">
      <rect x="142" y="31" width="328" height="686" rx="48" fill="white" />
    </g>
    <rect id="Rectangle 1031" x="287" y="49" width="36" height="4" rx="2" fill="#C4C4C4" />
    <circle id="Ellipse 435" cx="340" cy="51" r="4" fill="#C4C4C4" />
    <path id="Subtract" fill-rule="evenodd" clip-rule="evenodd"
      d="M221 49C221 48.6643 221.01 48.3309 221.029 48H221C221 44.134 217.866 41 214 41H191C170.013 41 153 58.0132 153 79V670C153 690.987 170.013 708 191 708H423C443.987 708 461 690.987 461 670V79C461 58.0132 443.987 41 423 41H401C397.134 41 394 44.134 394 48H393.971C393.99 48.3309 394 48.6643 394 49C394 58.3888 386.389 66 377 66H238C228.611 66 221 58.3888 221 49Z"
      fill="url(#paint1_linear_12330_5542)" />
    <g id="fignu-screen-0" class="fignu-screen0">
      <path id="Union" fill-rule="evenodd" clip-rule="evenodd"
        d="M273.655 327.893C273.655 327.906 273.655 327.913 273.656 327.913C273.657 327.913 273.66 327.905 273.664 327.891C273.683 327.826 273.741 327.624 273.926 327.304C274.168 326.887 274.562 326.381 275.143 325.904C276.275 324.975 278.19 324.099 281.235 324.323C293.666 325.236 300.461 333.763 300.461 339.933V379.086C300.461 379.49 300.39 379.64 300.369 379.674C300.329 379.699 300.173 379.769 299.769 379.769H292.211C291.807 379.769 291.652 379.699 291.611 379.674C291.591 379.64 291.519 379.49 291.519 379.086V342.945C291.519 340.375 290.263 337.86 288.462 336.016C286.654 334.166 284.122 332.813 281.356 332.813H273.655V327.893ZM300.381 379.666C300.381 379.666 300.378 379.667 300.374 379.671C300.378 379.669 300.38 379.667 300.381 379.666C300.381 379.666 300.381 379.666 300.381 379.666ZM291.599 379.666C291.6 379.666 291.602 379.667 291.606 379.671C291.601 379.668 291.599 379.666 291.599 379.666ZM281.356 336.101H273.655V379.086C273.655 380.117 273.47 381.276 272.594 382.108C271.738 382.923 270.599 383.057 269.675 383.057H261.98C261.12 383.057 260.062 382.894 259.216 382.156C258.325 381.379 258 380.263 258 379.086V342.534C258 340.496 259.142 338.106 260.744 336.281C262.369 334.432 264.774 332.813 267.613 332.813H270.367V327.886C270.367 327.163 270.677 326.356 271.079 325.66C271.514 324.908 272.164 324.095 273.058 323.362C274.876 321.871 277.633 320.762 281.476 321.044C295.153 322.048 303.749 331.605 303.749 339.933V379.086C303.749 380.056 303.531 381.131 302.741 381.953C301.94 382.788 300.845 383.057 299.769 383.057H292.211C291.136 383.057 290.041 382.788 289.239 381.953C288.45 381.131 288.231 380.056 288.231 379.086V342.945C288.231 341.419 287.455 339.69 286.11 338.314C284.772 336.944 283.044 336.101 281.356 336.101ZM267.613 336.101H270.367V379.086C270.367 379.418 270.336 379.611 270.308 379.713C270.2 379.741 270.005 379.769 269.675 379.769H261.98C261.562 379.769 261.411 379.697 261.38 379.679C261.352 379.631 261.288 379.474 261.288 379.086V342.534C261.288 341.56 261.932 339.912 263.215 338.451C264.476 337.015 266.055 336.101 267.613 336.101ZM261.393 379.696C261.393 379.697 261.389 379.693 261.383 379.683C261.391 379.691 261.394 379.696 261.393 379.696ZM340.289 387.848C340.289 387.835 340.289 387.829 340.288 387.829C340.286 387.829 340.284 387.836 340.28 387.851C340.261 387.915 340.203 388.117 340.018 388.437C339.776 388.855 339.382 389.361 338.801 389.837C337.668 390.766 335.754 391.642 332.709 391.418C320.277 390.506 313.483 381.978 313.483 375.808V336.655C313.483 336.251 313.554 336.101 313.574 336.067C313.615 336.042 313.771 335.972 314.175 335.972H321.733C322.137 335.972 322.292 336.042 322.333 336.067C322.353 336.101 322.425 336.251 322.425 336.655V372.797C322.425 375.367 323.681 377.882 325.482 379.725C327.29 381.576 329.822 382.928 332.588 382.928H340.289V387.848ZM313.57 336.07C313.565 336.074 313.563 336.076 313.563 336.075C313.563 336.075 313.565 336.073 313.57 336.07ZM322.344 336.075C322.344 336.076 322.342 336.074 322.337 336.07C322.342 336.073 322.345 336.075 322.344 336.075ZM332.588 379.64H340.289V336.655C340.289 335.625 340.474 334.466 341.349 333.633C342.206 332.819 343.345 332.684 344.269 332.684H351.964C352.823 332.684 353.881 332.848 354.727 333.585C355.619 334.362 355.944 335.478 355.944 336.655V373.207C355.944 375.245 354.802 377.635 353.2 379.46C351.575 381.31 349.169 382.928 346.331 382.928H343.576V387.856C343.576 388.578 343.267 389.385 342.865 390.082C342.43 390.834 341.78 391.646 340.886 392.379C339.068 393.87 336.311 394.979 332.468 394.697C318.79 393.693 310.195 384.136 310.195 375.808V336.655C310.195 335.685 310.413 334.611 311.202 333.788C312.004 332.954 313.099 332.684 314.175 332.684H321.733C322.808 332.684 323.903 332.954 324.705 333.788C325.494 334.611 325.712 335.685 325.712 336.655V372.797C325.712 374.323 326.489 376.051 327.834 377.428C329.172 378.797 330.9 379.64 332.588 379.64ZM346.331 379.64H343.576V336.655C343.576 336.324 343.608 336.131 343.636 336.029C343.744 336 343.939 335.972 344.269 335.972H351.964C352.382 335.972 352.533 336.045 352.563 336.062C352.592 336.11 352.656 336.268 352.656 336.655V373.207C352.656 374.181 352.012 375.83 350.729 377.29C349.468 378.726 347.889 379.64 346.331 379.64ZM352.55 336.045C352.551 336.044 352.555 336.048 352.561 336.058C352.553 336.05 352.55 336.045 352.55 336.045Z"
        fill="white" />
    </g>
    <g id="fignu-screen1" class="fignu-screen1">
      <text id="Me ajuda" fill="#FBF9FC" xml:space="preserve" style="white-space: pre" font-family="Source Sans Pro"
        font-size="8.87422" letter-spacing="0em">
        <tspan x="217.329" y="365.166">Me ajuda</tspan>
      </text>
      <text id="Ativar a fun&#195;&#167;&#195;&#163;o d&#195;&#169;bito" fill="#FBF9FC" xml:space="preserve"
        style="white-space: pre" font-family="Source Sans Pro" font-size="8.87422" letter-spacing="0em">
        <tspan x="217.329" y="405.692">Ativar a fun&#xe7;&#xe3;o d&#xe9;bito</tspan>
      </text>
      <text id="Perfil" fill="#FBF9FC" xml:space="preserve" style="white-space: pre" font-family="Source Sans Pro"
        font-size="8.87422" letter-spacing="0em">
        <tspan x="217.329" y="446.218">Perfil</tspan>
      </text>
      <text id="Configurar NuConta" fill="#FBF9FC" xml:space="preserve" style="white-space: pre"
        font-family="Source Sans Pro" font-size="8.87422" letter-spacing="0em">
        <tspan x="217.329" y="486.744">Configurar NuConta</tspan>
      </text>
      <text id="Configurar cart&#195;&#163;o" fill="#FBF9FC" xml:space="preserve" style="white-space: pre"
        font-family="Source Sans Pro" font-size="8.87422" letter-spacing="0em">
        <tspan x="217.329" y="527.27">Configurar cart&#xe3;o</tspan>
      </text>
      <text id="sair do app" fill="#FBF9FC" xml:space="preserve" style="white-space: pre" font-family="Source Sans Pro"
        font-size="8.87422" font-weight="bold" letter-spacing="0em">
        <tspan x="281.421" y="622.506">SAIR DO APP</tspan>
      </text>
      <g id="Group 322">
        <text id="Banco" fill="#FBF9FC" xml:space="preserve" style="white-space: pre" font-family="Source Sans Pro"
          font-size="11.8323" letter-spacing="0em">
          <tspan x="217.581" y="288.678">Banco</tspan>
        </text>
        <text id="260 - Nu Pagamentos S.A." fill="#FBF9FC" xml:space="preserve" style="white-space: pre"
          font-family="Source Sans Pro" font-size="11.8323" font-weight="bold" letter-spacing="0em">
          <tspan x="253.571" y="288.678">260 - Nu Pagamentos S.A.</tspan>
        </text>
      </g>
      <g id="Group 323">
        <text id="0001" fill="#FBF9FC" xml:space="preserve" style="white-space: pre" font-family="Source Sans Pro"
          font-size="11.8323" font-weight="bold" letter-spacing="0em">
          <tspan x="310.058" y="305.902">0001</tspan>
        </text>
        <text id="Ag&#195;&#170;ncia" fill="#FBF9FC" xml:space="preserve" style="white-space: pre"
          font-family="Source Sans Pro" font-size="11.8323" letter-spacing="0em">
          <tspan x="267.658" y="305.902">Ag&#xea;ncia</tspan>
        </text>
      </g>
      <g id="Group 324">
        <text id="77712444-0" fill="#FBF9FC" xml:space="preserve" style="white-space: pre" font-family="Source Sans Pro"
          font-size="11.8323" font-weight="bold" letter-spacing="0em">
          <tspan x="286.645" y="323.125">77712444-0</tspan>
        </text>
        <text id="Conta" fill="#FBF9FC" xml:space="preserve" style="white-space: pre" font-family="Source Sans Pro"
          font-size="11.8323" letter-spacing="0em">
          <tspan x="253.12" y="323.125">Conta</tspan>
        </text>
      </g>
      <g id="Group 325">
        <path id="Vector"
          d="M199.465 452.352V450.325C199.465 449.25 199.051 448.219 198.313 447.459C197.575 446.699 196.575 446.272 195.532 446.272H187.664C186.621 446.272 185.621 446.699 184.883 447.459C184.145 448.219 183.731 449.25 183.731 450.325V452.352"
          stroke="#FBF9FC" stroke-width="0.986024" stroke-linecap="round" stroke-linejoin="round" />
        <path id="Vector_2"
          d="M191.598 442.219C193.77 442.219 195.532 440.404 195.532 438.165C195.532 435.926 193.77 434.112 191.598 434.112C189.425 434.112 187.664 435.926 187.664 438.165C187.664 440.404 189.425 442.219 191.598 442.219Z"
          stroke="#FBF9FC" stroke-width="0.986024" stroke-linecap="round" stroke-linejoin="round" />
      </g>
      <g id="Group 326">
        <path id="Vector_3" d="M191.599 472.62V494.914" stroke="#FBF9FC" stroke-width="0.986024" stroke-linecap="round"
          stroke-linejoin="round" />
        <path id="Vector_4"
          d="M196.515 476.673H189.14C188.227 476.673 187.352 477.047 186.706 477.712C186.061 478.377 185.698 479.28 185.698 480.22C185.698 481.161 186.061 482.063 186.706 482.728C187.352 483.393 188.227 483.767 189.14 483.767H194.057C194.97 483.767 195.845 484.141 196.491 484.806C197.136 485.471 197.499 486.373 197.499 487.314C197.499 488.255 197.136 489.157 196.491 489.822C195.845 490.487 194.97 490.861 194.057 490.861H185.698"
          stroke="#FBF9FC" stroke-width="0.986024" stroke-linecap="round" stroke-linejoin="round" />
      </g>
      <g id="Group 327">
        <path id="Vector_5"
          d="M200.449 517.208H182.747C181.661 517.208 180.781 518.116 180.781 519.235V531.396C180.781 532.515 181.661 533.422 182.747 533.422H200.449C201.535 533.422 202.415 532.515 202.415 531.396V519.235C202.415 518.116 201.535 517.208 200.449 517.208Z"
          stroke="#FBF9FC" stroke-width="0.986024" stroke-linecap="round" stroke-linejoin="round" />
        <path id="Vector_6" d="M180.781 523.289H202.415" stroke="#FBF9FC" stroke-width="0.986024" stroke-linecap="round"
          stroke-linejoin="round" />
      </g>
      <g id="Group 328">
        <path id="Vector_7"
          d="M200.449 395.603H182.747C181.661 395.603 180.781 396.511 180.781 397.63V409.79C180.781 410.91 181.661 411.817 182.747 411.817H200.449C201.535 411.817 202.415 410.91 202.415 409.79V397.63C202.415 396.511 201.535 395.603 200.449 395.603Z"
          stroke="#FBF9FC" stroke-width="0.986024" stroke-linecap="round" stroke-linejoin="round" />
        <path id="Vector_8" d="M180.781 401.683H202.415" stroke="#FBF9FC" stroke-width="0.986024" stroke-linecap="round"
          stroke-linejoin="round" />
      </g>
      <g id="Group 329">
        <path id="Vector_9"
          d="M191.598 371.282C197.029 371.282 201.432 366.745 201.432 361.148C201.432 355.552 197.029 351.015 191.598 351.015C186.167 351.015 181.764 355.552 181.764 361.148C181.764 366.745 186.167 371.282 191.598 371.282Z"
          stroke="#FBF9FC" stroke-width="0.986024" stroke-linecap="round" stroke-linejoin="round" />
        <path id="Vector_10"
          d="M188.736 358.108C188.968 357.431 189.424 356.86 190.025 356.496C190.625 356.132 191.331 355.999 192.018 356.121C192.705 356.242 193.328 356.61 193.776 357.159C194.225 357.709 194.471 358.404 194.47 359.122C194.47 361.148 191.519 362.162 191.519 362.162"
          stroke="#FBF9FC" stroke-width="0.986024" stroke-linecap="round" stroke-linejoin="round" />
        <path id="Vector_11" d="M191.598 366.215H191.608" stroke="#FBF9FC" stroke-width="0.986024"
          stroke-linecap="round" stroke-linejoin="round" />
      </g>
      <path id="Vector 34" d="M170.986 342.84H441.157" stroke="#BB71D2" stroke-width="0.807701" />
      <path id="Vector 35" d="M170.986 545.47H442.143" stroke="#BB71D2" stroke-width="0.807701" />
      <text id="Configurar App" fill="#FBF9FC" xml:space="preserve" style="white-space: pre"
        font-family="Source Sans Pro" font-size="8.87422" letter-spacing="0em">
        <tspan x="217.329" y="567.796">Configurar App</tspan>
      </text>
      <path id="Vector 36" d="M170.986 585.996H442.143" stroke="#BB71D2" stroke-width="0.807701" />
      <path id="Vector 37" d="M170.986 504.944H442.143" stroke="#BB71D2" stroke-width="0.807701" />
      <path id="Vector 38" d="M170.986 464.418H442.143" stroke="#BB71D2" stroke-width="0.807701" />
      <path id="Vector 39" d="M170.986 423.892H442.143" stroke="#BB71D2" stroke-width="0.807701" />
      <path id="Vector 40" d="M170 383.366H441.157" stroke="#BB71D2" stroke-width="0.807701" />
      <rect id="Rectangle 351" x="170.404" y="600.584" width="270.349" height="39.7183" rx="2.55422" stroke="#BB71D2"
        stroke-width="0.807701" />
      <path id="Vector_12" d="M313.697 146.312L307.797 140.232L301.896 146.312" stroke="#FBF9FC" stroke-width="0.986024"
        stroke-linecap="round" stroke-linejoin="round" />
      <g id="Group 330">
        <rect id="Rectangle 396" x="262.004" y="167.565" width="91.7003" height="94.223" fill="white" />
        <path id="Union_2" fill-rule="evenodd" clip-rule="evenodd"
          d="M318.963 174.306H346.995V180.281H318.963V174.306ZM308.078 185.797V180.281H313.446V174.306H302.263V179.821V180.281V185.797V185.797V191.772H307.631V197.594H301.965V209.084H307.78V203.262H313.446V191.772L313.446 185.797H308.078ZM335.961 185.95H330.146V191.925H335.961V185.95ZM274.38 208.778V214.753H268.565V208.778H274.38ZM274.38 214.753H279.748V209.084H290.931V214.6H307.78V220.268V220.575V226.244H301.965V220.575H285.414V215.059H280.196V220.728H274.38V214.753ZM324.331 220.728V215.059H318.963V209.084H330.146V215.059L330.146 220.728H324.331ZM341.329 237.734V231.759H347.144V237.734H341.329ZM347.144 249.378V243.403H341.329V249.378H347.144ZM335.514 249.225H341.329V255.2H335.514V249.225ZM324.778 237.581H318.963V232.219H330.146V243.403H335.514V243.403H341.329V237.428H335.961V232.219H341.329V226.244V214.753H335.514V226.244L318.963 226.244V220.268H313.148V226.244H307.78V232.219H313.148V237.734H307.78V243.709H313.595V237.734H318.963V243.556H324.331V249.072H307.78V255.047H330.146V249.072H330.146V243.403H324.778V237.581ZM318.963 226.244V231.759H313.595V226.244H318.963ZM307.78 243.25V249.071H301.965V243.25V243.096V231.759H307.78V243.096V243.25ZM279.748 237.581H285.563V243.556H279.748V237.581ZM285.563 185.95H279.748V191.925H285.563V185.95ZM307.78 208.778H313.595V214.753H307.78V208.778ZM290.782 197.594H268.565V203.569H296.597V198.053H296.597V180.281H296.598V174.306H268.566V180.281H268.565V197.594H274.38V180.281H290.782V197.594ZM268.565 226.244H296.597V232.219H296.597V248.918H290.782V232.219H274.38V248.918H268.565V232.219V232.219V226.244ZM296.597 248.918H268.565V254.894H296.597V248.918ZM346.995 197.594H318.963V203.569H346.995V197.594ZM346.995 180.281H341.18V197.594H346.995V180.281ZM318.963 180.281H324.778V197.594H318.963V180.281ZM347.144 220.575V209.084H341.329V220.575H347.144Z"
          fill="#82269E" />
      </g>
      <path id="Rectangle 352"
        d="M176 662.165C176 659.443 178.207 657.235 180.93 657.235H431.07C433.793 657.235 436 659.443 436 662.165V708H176V662.165Z"
        fill="#FBF9FC" />
      <text id="NuConta" fill="#3C3B3D" xml:space="preserve" style="white-space: pre" font-family="Source Sans Pro"
        font-size="11.8323" letter-spacing="0em">
        <tspan x="228.889" y="685.046">NuConta</tspan>
      </text>
      <g id="Group 331">
        <path id="Vector_13"
          d="M395.162 684.416C395.162 684.416 399.096 676.309 405.98 676.309C412.864 676.309 416.797 684.416 416.797 684.416C416.797 684.416 412.864 692.523 405.98 692.523C399.096 692.523 395.162 684.416 395.162 684.416Z"
          stroke="#3C3B3D" stroke-width="0.986024" stroke-linecap="round" stroke-linejoin="round" />
        <path id="Vector_14"
          d="M405.98 687.456C407.609 687.456 408.93 686.095 408.93 684.416C408.93 682.737 407.609 681.376 405.98 681.376C404.35 681.376 403.03 682.737 403.03 684.416C403.03 686.095 404.35 687.456 405.98 687.456Z"
          stroke="#3C3B3D" stroke-width="0.986024" stroke-linecap="round" stroke-linejoin="round" />
      </g>
      <path id="Vector_15"
        d="M198.482 691.509C203.913 691.509 208.316 686.972 208.316 681.375C208.316 675.779 203.913 671.242 198.482 671.242C193.051 671.242 188.648 675.779 188.648 681.375C188.648 686.972 193.051 691.509 198.482 691.509Z"
        stroke="#3C3B3D" stroke-width="0.986024" stroke-linecap="round" stroke-linejoin="round" />
      <g id="Group 332">
        <path id="Vector_16" d="M198.482 675.295V686.442" stroke="#3C3B3D" stroke-width="0.986024"
          stroke-linecap="round" stroke-linejoin="round" />
        <path id="Vector_17"
          d="M200.94 677.322H197.253C196.796 677.322 196.359 677.509 196.036 677.841C195.713 678.174 195.532 678.625 195.532 679.095C195.532 679.566 195.713 680.017 196.036 680.349C196.359 680.682 196.796 680.869 197.253 680.869H199.711C200.168 680.869 200.605 681.055 200.928 681.388C201.251 681.721 201.432 682.172 201.432 682.642C201.432 683.112 201.251 683.563 200.928 683.896C200.605 684.229 200.168 684.415 199.711 684.415H195.532"
          stroke="#3C3B3D" stroke-width="0.986024" stroke-linecap="round" stroke-linejoin="round" />
      </g>
      <g id="Group 333">
        <path id="Vector_18"
          d="M196.515 555.717H186.681C185.595 555.717 184.714 556.624 184.714 557.744V573.958C184.714 575.077 185.595 575.984 186.681 575.984H196.515C197.601 575.984 198.482 575.077 198.482 573.958V557.744C198.482 556.624 197.601 555.717 196.515 555.717Z"
          stroke="#FBF9FC" stroke-width="0.986024" stroke-linecap="round" stroke-linejoin="round" />
        <path id="Vector_19" d="M191.598 571.931H191.608" stroke="#FBF9FC" stroke-width="0.986024"
          stroke-linecap="round" stroke-linejoin="round" />
      </g>
      <g id="Group 334">
        <g id="Group 32">
          <rect id="Rectangle 421" x="399.744" y="57.3495" width="2.57108" height="3.39661" rx="0.986024"
            fill="white" />
          <rect id="Rectangle 422" x="403.417" y="55.8398" width="2.57108" height="4.90622" rx="0.986024"
            fill="white" />
          <rect id="Rectangle 423" x="407.09" y="53.9529" width="2.57108" height="6.79323" rx="0.986024" fill="white" />
          <rect id="Rectangle 424" x="410.763" y="52.0658" width="2.57108" height="8.68023" rx="0.986024"
            fill="white" />
        </g>
        <g id="Group 34">
          <path id="Vector 36_2"
            d="M449.045 58.5904V55.6725C449.834 56.1588 449.992 56.6451 449.992 57.1314C449.992 57.6177 449.834 58.104 449.045 58.5904Z"
            fill="white" fill-opacity="0.5" />
          <rect id="Rectangle 413" x="433.584" y="53.3944" width="14.5143" height="7.47415" rx="1.57764" stroke="white"
            stroke-opacity="0.5" stroke-width="0.631056" />
          <rect id="Rectangle 414" x="434.531" y="54.3757" width="12.6211" height="5.51154" rx="0.946583"
            fill="#FBF9FC" />
        </g>
        <g id="Group 33">
          <path id="Subtract_2" fill-rule="evenodd" clip-rule="evenodd"
            d="M428.591 54.6344L427.407 55.8505C426.264 54.7593 424.731 54.0921 423.047 54.0921C421.357 54.0921 419.82 54.7645 418.674 55.8632L417.492 54.6487C418.848 53.0652 420.834 52.0658 423.048 52.0658C425.255 52.0658 427.236 53.0591 428.591 54.6344Z"
            fill="white" />
          <path id="Subtract_3" fill-rule="evenodd" clip-rule="evenodd"
            d="M427.717 58.8411C427.717 58.841 427.717 58.8408 427.716 58.8406L427.716 58.8411L427.717 58.8411ZM420.7 58.2249L419.656 57.0552C420.597 56.1034 421.906 55.5401 423.329 55.6035C424.628 55.6614 425.787 56.2304 426.632 57.1135L425.477 58.2014C424.881 57.6667 424.11 57.3285 423.258 57.2906C422.281 57.2471 421.378 57.6062 420.7 58.2249Z"
            fill="white" />
          <path id="Vector 37_2"
            d="M423.048 60.6776L421.569 59.1579C422.04 58.6979 422.39 58.4824 423.048 58.4824C423.705 58.4824 424.052 58.655 424.527 59.1579L423.048 60.6776Z"
            fill="white" />
        </g>
        <text id="22:31" fill="white" xml:space="preserve" style="white-space: pre" font-family="Cairo"
          font-size="12.8183" font-weight="bold" letter-spacing="0em">
          <tspan x="178.874" y="60.6915">22:31</tspan>
        </text>
      </g>
      <g id="Group 335">
        <text id="Talisson Barbosa" fill="#FBF9FC" xml:space="preserve" style="white-space: pre" font-family="Sora"
          font-size="14.5386" font-weight="bold" letter-spacing="0em">
          <tspan x="263.62" y="116.298">Talisson Barbosa</tspan>
        </text>
        <path id="Union_3" fill-rule="evenodd" clip-rule="evenodd"
          d="M226.442 102.188V100.625C226.442 100.625 226.443 100.622 226.444 100.619C226.45 100.6 226.468 100.544 226.518 100.454C226.593 100.321 226.717 100.157 226.901 100.002C227.256 99.7027 227.867 99.4093 228.862 99.4844C233.022 99.7982 235.273 102.727 235.273 104.814V118.515C235.273 118.559 235.27 118.592 235.267 118.616C235.247 118.619 235.221 118.621 235.187 118.621H232.613C232.578 118.621 232.552 118.619 232.532 118.616C232.529 118.592 232.526 118.559 232.526 118.515V105.868C232.526 104.932 232.082 104.022 231.449 103.356C230.814 102.689 229.913 102.188 228.915 102.188H226.442ZM228.915 103.606H226.442V118.515C226.442 118.883 226.379 119.333 226.041 119.663C225.706 119.991 225.264 120.039 224.937 120.039H222.316C222.004 120.039 221.598 119.978 221.27 119.684C220.927 119.377 220.812 118.945 220.812 118.515V105.724C220.812 104.974 221.218 104.11 221.777 103.455C222.344 102.792 223.202 102.188 224.235 102.188H225.024V100.598C225.024 100.316 225.14 100.012 225.282 99.7592C225.437 99.4829 225.669 99.1856 225.987 98.9174C226.637 98.3697 227.618 97.9684 228.969 98.0703C233.7 98.4272 236.691 101.827 236.691 104.814V118.515C236.691 118.868 236.615 119.281 236.313 119.604C236.003 119.936 235.581 120.039 235.187 120.039H232.613C232.218 120.039 231.797 119.936 231.486 119.604C231.184 119.281 231.108 118.868 231.108 118.515V105.868C231.108 105.37 230.859 104.794 230.421 104.334C229.985 103.875 229.434 103.606 228.915 103.606ZM224.235 103.606H225.024V118.515C225.024 118.557 225.022 118.591 225.02 118.618C224.997 118.62 224.97 118.621 224.937 118.621H222.316C222.283 118.621 222.256 118.619 222.236 118.617C222.233 118.593 222.23 118.56 222.23 118.515V105.724C222.23 105.42 222.432 104.871 222.855 104.376C223.271 103.89 223.77 103.606 224.235 103.606ZM248.838 119.993V121.556C248.837 121.557 248.836 121.559 248.835 121.563C248.829 121.582 248.812 121.638 248.761 121.728C248.686 121.861 248.562 122.025 248.378 122.18C248.023 122.479 247.413 122.773 246.417 122.697C242.257 122.384 240.006 119.455 240.006 117.368V103.667C240.006 103.623 240.009 103.589 240.012 103.566C240.032 103.563 240.059 103.561 240.093 103.561H242.667C242.701 103.561 242.728 103.563 242.747 103.566C242.751 103.589 242.753 103.623 242.753 103.667V116.314C242.753 117.249 243.197 118.159 243.831 118.825C244.466 119.493 245.366 119.993 246.364 119.993H248.838ZM246.364 118.575H248.838L248.838 103.667C248.838 103.299 248.9 102.849 249.238 102.519C249.573 102.191 250.015 102.143 250.342 102.143H252.963C253.275 102.143 253.682 102.204 254.009 102.498C254.352 102.805 254.468 103.237 254.468 103.667V116.458C254.468 117.208 254.062 118.072 253.502 118.727C252.935 119.39 252.077 119.993 251.044 119.993H250.256V121.584C250.256 121.866 250.14 122.17 249.997 122.423C249.842 122.699 249.61 122.996 249.292 123.264C248.642 123.812 247.662 124.213 246.311 124.112C241.579 123.755 238.588 120.355 238.588 117.368V103.667C238.588 103.314 238.665 102.901 238.966 102.578C239.277 102.245 239.699 102.143 240.093 102.143H242.667C243.061 102.143 243.483 102.245 243.793 102.578C244.095 102.901 244.172 103.314 244.172 103.667V116.314C244.172 116.812 244.42 117.387 244.858 117.848C245.295 118.307 245.845 118.575 246.364 118.575ZM251.044 118.575H250.256V103.667C250.256 103.625 250.257 103.591 250.259 103.564C250.282 103.562 250.31 103.561 250.342 103.561H252.963C252.997 103.561 253.023 103.563 253.043 103.565C253.047 103.589 253.05 103.622 253.05 103.667V116.458C253.05 116.762 252.847 117.311 252.424 117.806C252.008 118.292 251.509 118.575 251.044 118.575Z"
          fill="white" />
      </g>
    </g>
    <g id="fignu-screen-2" class="fignu-screen2">
      <path id="Vector_20" d="M303.543 137.735L309.444 143.652L315.344 137.735" stroke="#FBF9FC" stroke-width="0.986245"
        stroke-linecap="round" stroke-linejoin="round" />
      <rect id="Rectangle 426" x="178.711" y="229.455" width="260.369" height="260.369" rx="4.93123" fill="#FEFBFF" />
      <rect id="Rectangle 427" x="178.711" y="430.649" width="260.369" height="59.1747" rx="4.93123" fill="#EDEAEF" />
      <text id="Saldo dispon&#195;&#173;vel" fill="#3C3B3D" xml:space="preserve" style="white-space: pre"
        font-family="Source Sans Pro" font-size="11.8349" letter-spacing="0em">
        <tspan x="191.923" y="333.254">Saldo dispon&#xed;vel</tspan>
      </text>
      <text id="Transfer&#195;&#170;ncia de R$ 500,00 feita para Juliana ontem" fill="#3C3B3D" xml:space="preserve"
        style="white-space: pre" font-family="Source Sans Pro" font-size="8.87621" letter-spacing="0em">
        <tspan x="234.731" y="458.127">Transfer&#xea;ncia de R$ 500,00 feita para Juliana&#10;</tspan>
        <tspan x="234.731" y="470.127">ontem</tspan>
      </text>
      <text id="NuConta_2" fill="#3C3B3D" xml:space="preserve" style="white-space: pre" font-family="Source Sans Pro"
        font-size="11.8349" letter-spacing="0em">
        <tspan x="232.308" y="257.33">NuConta</tspan>
      </text>
      <text id="R$ 20.150,59" fill="#3C3B3D" xml:space="preserve" style="white-space: pre" font-family="Sora"
        font-size="23.6699" font-weight="bold" letter-spacing="0em">
        <tspan x="192.203" y="365.63">R$ 20.150,59</tspan>
      </text>
      <g id="Group 333_2">
        <path id="Vector_21"
          d="M397.95 256.084C397.95 256.084 401.883 248.194 408.767 248.194C415.651 248.194 419.585 256.084 419.585 256.084C419.585 256.084 415.651 263.974 408.767 263.974C401.883 263.974 397.95 256.084 397.95 256.084Z"
          stroke="#3C3B3D" stroke-width="0.986245" stroke-linecap="round" stroke-linejoin="round" />
        <path id="Vector_22"
          d="M408.767 259.043C410.397 259.043 411.718 257.718 411.718 256.084C411.718 254.45 410.397 253.125 408.767 253.125C407.138 253.125 405.817 254.45 405.817 256.084C405.817 257.718 407.138 259.043 408.767 259.043Z"
          stroke="#3C3B3D" stroke-width="0.986245" stroke-linecap="round" stroke-linejoin="round" />
      </g>
      <g id="Group 334_2">
        <g id="Group 13">
          <path id="Vector_23" d="M201.27 247.208V258.056" stroke="#3C3B3D" stroke-width="0.986245"
            stroke-linecap="round" stroke-linejoin="round" />
          <path id="Vector_24"
            d="M203.728 249.18H200.041C199.584 249.18 199.146 249.362 198.824 249.686C198.501 250.009 198.32 250.448 198.32 250.906C198.32 251.364 198.501 251.803 198.824 252.127C199.146 252.45 199.584 252.632 200.041 252.632H202.499C202.955 252.632 203.393 252.814 203.716 253.138C204.039 253.461 204.22 253.9 204.22 254.358C204.22 254.816 204.039 255.255 203.716 255.578C203.393 255.902 202.955 256.084 202.499 256.084H198.32"
            stroke="#3C3B3D" stroke-width="0.986245" stroke-linecap="round" stroke-linejoin="round" />
        </g>
        <path id="Vector_25"
          d="M201.269 262.988C206.701 262.988 211.103 258.572 211.103 253.125C211.103 247.678 206.701 243.263 201.269 243.263C195.838 243.263 191.435 247.678 191.435 253.125C191.435 258.572 195.838 262.988 201.269 262.988Z"
          stroke="#3C3B3D" stroke-width="0.986245" stroke-linecap="round" stroke-linejoin="round" />
      </g>
      <g id="Group 335_2">
        <g id="Group 14">
          <path id="Vector_26" d="M208.153 456.292V467.141" stroke="#3C3B3D" stroke-width="0.986245"
            stroke-linecap="round" stroke-linejoin="round" />
          <path id="Vector_27"
            d="M210.612 458.264H206.924C206.468 458.264 206.03 458.446 205.707 458.77C205.384 459.093 205.203 459.532 205.203 459.99C205.203 460.448 205.384 460.887 205.707 461.211C206.03 461.534 206.468 461.716 206.924 461.716H209.383C209.839 461.716 210.277 461.898 210.599 462.222C210.922 462.545 211.104 462.984 211.104 463.442C211.104 463.9 210.922 464.339 210.599 464.662C210.277 464.986 209.839 465.168 209.383 465.168H205.203"
            stroke="#3C3B3D" stroke-width="0.986245" stroke-linecap="round" stroke-linejoin="round" />
        </g>
        <path id="Vector_28"
          d="M208.153 452.347C202.722 452.347 198.319 456.762 198.319 462.209C198.319 467.656 202.722 472.072 208.153 472.072C213.585 472.072 217.987 467.656 217.987 462.209C217.987 460.995 217.769 459.832 217.368 458.758"
          stroke="#3C3B3D" stroke-width="0.986245" stroke-linecap="round" stroke-linejoin="round" />
        <g id="Group 15">
          <path id="Vector_29" d="M218.971 453.333L215.037 449.388L211.104 453.333" stroke="#3C3B3D"
            stroke-width="0.986245" stroke-linecap="round" stroke-linejoin="round" />
          <path id="Vector_30" d="M215.037 457.278V449.388" stroke="#3C3B3D" stroke-width="0.986245"
            stroke-linecap="round" stroke-linejoin="round" />
        </g>
      </g>
      <circle id="Ellipse 16" cx="294.102" cy="506.59" r="2.95874" fill="#FEFBFF" />
      <circle id="Ellipse 17" cx="309.881" cy="506.59" r="2.95874" fill="#BB71D2" />
      <circle id="Ellipse 18" cx="325.661" cy="506.59" r="2.95874" fill="#BB71D2" />
      <rect id="Rectangle 428" x="259.77" y="685.101" width="98.6245" height="4.93123" rx="2.46561" fill="#EDEAEF" />
      <g id="Group 336">
        <g id="Group 32_2">
          <rect id="Rectangle 421_2" x="399.63" y="57.0745" width="2.57166" height="3.30641" rx="0.986245"
            fill="white" />
          <rect id="Rectangle 422_2" x="403.304" y="55.605" width="2.57166" height="4.77593" rx="0.986245"
            fill="white" />
          <rect id="Rectangle 423_2" x="406.977" y="53.7681" width="2.57166" height="6.61283" rx="0.986245"
            fill="white" />
          <rect id="Rectangle 424_2" x="410.651" y="51.9312" width="2.57166" height="8.44972" rx="0.986245"
            fill="white" />
        </g>
        <g id="Group 34_2">
          <path id="Vector 36_3"
            d="M448.942 58.2825V55.4421C449.731 55.9155 449.889 56.3889 449.889 56.8623C449.889 57.3357 449.731 57.8091 448.942 58.2825Z"
            fill="white" fill-opacity="0.5" />
          <rect id="Rectangle 413_2" x="433.478" y="53.233" width="14.5175" height="7.25877" rx="1.57799" stroke="white"
            stroke-opacity="0.5" stroke-width="0.631197" />
          <rect id="Rectangle 414_2" x="434.425" y="54.1798" width="12.6239" height="5.36517" rx="0.946796"
            fill="#FBF9FC" />
        </g>
        <g id="Group 33_2">
          <path id="Subtract_4" fill-rule="evenodd" clip-rule="evenodd"
            d="M427.299 55.6152L428.483 54.4313C427.128 52.898 425.146 51.9312 422.939 51.9312C420.725 51.9312 418.738 52.904 417.382 54.4455L418.565 55.6277C419.71 54.5582 421.248 53.9036 422.939 53.9036C424.623 53.9036 426.155 54.5531 427.299 55.6152Z"
            fill="white" />
          <path id="Subtract_5" fill-rule="evenodd" clip-rule="evenodd"
            d="M427.61 58.5266C427.61 58.5264 427.609 58.5261 427.609 58.5259L427.609 58.5266L427.61 58.5266ZM420.591 57.9268L419.547 56.7882C420.488 55.8615 421.797 55.3132 423.221 55.3749C424.52 55.4312 425.68 55.9851 426.524 56.8446L425.369 57.9037C424.773 57.3832 424.002 57.0541 423.15 57.0171C422.172 56.9748 421.269 57.3244 420.591 57.9268Z"
            fill="white" />
          <path id="Vector 37_3"
            d="M422.939 60.3142L421.459 58.8349C421.931 58.3871 422.281 58.1774 422.939 58.1774C423.596 58.1774 423.943 58.3454 424.418 58.8349L422.939 60.3142Z"
            fill="white" />
        </g>
        <text id="22:31_2" fill="white" xml:space="preserve" style="white-space: pre" font-family="Cairo"
          font-size="12.8212" font-weight="bold" letter-spacing="0em">
          <tspan x="178.711" y="60.6926">22:31</tspan>
        </text>
      </g>
      <g id="Group 337">
        <text id="Talisson Barbosa_2" fill="#FBF9FC" xml:space="preserve" style="white-space: pre" font-family="Sora"
          font-size="14.5386" font-weight="bold" letter-spacing="0em">
          <tspan x="264.616" y="114.988">Talisson Barbosa</tspan>
        </text>
        <path id="Union_4" fill-rule="evenodd" clip-rule="evenodd"
          d="M227.438 100.837V99.3412C227.439 99.3402 227.439 99.3387 227.44 99.3368C227.445 99.32 227.462 99.2685 227.511 99.1848C227.584 99.0577 227.707 98.8993 227.891 98.7487C228.245 98.4579 228.859 98.1702 229.86 98.2436C234.037 98.5503 236.27 101.408 236.27 103.411V116.746C236.27 116.779 236.268 116.805 236.266 116.825C236.245 116.828 236.218 116.829 236.183 116.829H233.609C233.574 116.829 233.547 116.828 233.526 116.825C233.524 116.805 233.523 116.779 233.523 116.746V104.437C233.523 103.514 233.073 102.622 232.439 101.973C231.802 101.321 230.903 100.837 229.912 100.837H227.438ZM229.912 102.255H227.438V116.746C227.438 117.11 227.374 117.557 227.031 117.883C226.696 118.202 226.257 118.248 225.934 118.248H223.313C223.005 118.248 222.601 118.189 222.274 117.904C221.927 117.601 221.808 117.173 221.808 116.746V104.297C221.808 103.555 222.22 102.707 222.78 102.069C223.35 101.42 224.207 100.837 225.232 100.837H226.02V99.3083C226.02 99.0244 226.14 98.7229 226.283 98.4755C226.44 98.2042 226.673 97.9136 226.991 97.6522C227.641 97.119 228.619 96.7306 229.964 96.8293C234.679 97.1755 237.688 100.477 237.688 103.411V116.746C237.688 117.096 237.609 117.507 237.303 117.826C236.992 118.15 236.572 118.248 236.183 118.248H233.609C233.22 118.248 232.801 118.15 232.489 117.826C232.183 117.507 232.104 117.096 232.104 116.746V104.437C232.104 103.965 231.862 103.411 231.424 102.964C230.99 102.519 230.438 102.255 229.912 102.255ZM225.232 102.255H226.02V116.746C226.02 116.777 226.019 116.804 226.018 116.827C225.994 116.829 225.966 116.829 225.934 116.829H223.313C223.279 116.829 223.251 116.828 223.23 116.825C223.228 116.805 223.226 116.779 223.226 116.746V104.297C223.226 104.014 223.423 103.486 223.846 103.005C224.259 102.535 224.759 102.255 225.232 102.255ZM249.834 118.204V119.7C249.83 119.709 249.815 119.763 249.762 119.856C249.688 119.983 249.565 120.141 249.382 120.292C249.027 120.583 248.413 120.871 247.412 120.797C243.235 120.49 241.003 117.633 241.003 115.63V102.295C241.003 102.262 241.004 102.236 241.007 102.216C241.027 102.213 241.054 102.211 241.089 102.211H243.663C243.698 102.211 243.725 102.213 243.746 102.216C243.748 102.236 243.75 102.262 243.75 102.295V114.604C243.75 115.526 244.199 116.419 244.834 117.068C245.471 117.72 246.369 118.204 247.36 118.204H249.834ZM247.36 116.785H249.834L249.834 102.295C249.834 101.931 249.898 101.484 250.241 101.157C250.577 100.839 251.015 100.793 251.338 100.793H253.959C254.268 100.793 254.671 100.851 254.999 101.137C255.346 101.439 255.464 101.868 255.464 102.295V114.744C255.464 115.486 255.053 116.333 254.492 116.972C253.923 117.62 253.066 118.204 252.041 118.204H251.252V119.732C251.252 120.016 251.132 120.318 250.989 120.565C250.833 120.837 250.6 121.127 250.281 121.389C249.631 121.922 248.653 122.31 247.309 122.211C242.594 121.865 239.585 118.564 239.585 115.63V102.295C239.585 101.945 239.663 101.534 239.969 101.215C240.281 100.891 240.7 100.793 241.089 100.793H243.663C244.052 100.793 244.472 100.891 244.783 101.215C245.089 101.534 245.168 101.945 245.168 102.295V114.604C245.168 115.076 245.411 115.629 245.848 116.077C246.282 116.521 246.834 116.785 247.36 116.785ZM252.041 116.785H251.252V102.295C251.252 102.264 251.253 102.237 251.254 102.214C251.278 102.212 251.306 102.211 251.338 102.211H253.959C253.994 102.211 254.021 102.213 254.042 102.215C254.044 102.235 254.046 102.262 254.046 102.295V114.744C254.046 115.027 253.849 115.555 253.427 116.036C253.014 116.506 252.513 116.785 252.041 116.785Z"
          fill="white" />
      </g>
      <g id="component-menu" clip-path="url(#clip1_12330_5542)">
        <rect id="Rectangle 426_2" x="169.835" y="566.896" width="82.0556" height="89.7483" rx="2.4231"
          fill="#9C4FB4" />
        <text id="Transferir" fill="#EDEAEF" xml:space="preserve" style="white-space: pre" font-family="Source Sans Pro"
          font-size="11.8349" letter-spacing="0em">
          <tspan x="178.711" y="646.668">Transferir</tspan>
        </text>
        <rect id="Rectangle 427_2" x="355.249" y="566.896" width="82.0556" height="89.7483" rx="2.4231"
          fill="#9C4FB4" />
        <text id="Cobrar" fill="#EDEAEF" xml:space="preserve" style="white-space: pre" font-family="Source Sans Pro"
          font-size="11.8349" letter-spacing="0em">
          <tspan x="363.964" y="646.787">Cobrar</tspan>
        </text>
        <rect id="Rectangle 428_2" x="262.542" y="566.896" width="82.0556" height="89.7483" rx="2.4231"
          fill="#9C4FB4" />
        <text id="Depositar" fill="#EDEAEF" xml:space="preserve" style="white-space: pre" font-family="Source Sans Pro"
          font-size="11.8349" letter-spacing="0em">
          <tspan x="271.418" y="646.668">Depositar </tspan>
        </text>
        <g id="Group 328_2">
          <g id="Group 323_2">
            <path id="Vector_31" d="M188.485 581.69V592.538" stroke="#EDEAEF" stroke-width="0.807701"
              stroke-linecap="round" stroke-linejoin="round" />
            <path id="Vector_32"
              d="M190.944 583.662H187.256C186.8 583.662 186.362 583.844 186.039 584.168C185.716 584.492 185.535 584.931 185.535 585.388C185.535 585.846 185.716 586.285 186.039 586.609C186.362 586.932 186.8 587.114 187.256 587.114H189.715C190.171 587.114 190.609 587.296 190.932 587.62C191.254 587.943 191.436 588.382 191.436 588.84C191.436 589.298 191.254 589.737 190.932 590.061C190.609 590.384 190.171 590.566 189.715 590.566H185.535"
              stroke="#EDEAEF" stroke-width="0.807701" stroke-linecap="round" stroke-linejoin="round" />
          </g>
          <path id="Vector_33"
            d="M188.485 577.745C183.054 577.745 178.651 582.16 178.651 587.607C178.651 593.054 183.054 597.47 188.485 597.47C193.917 597.47 198.319 593.054 198.319 587.607C198.319 586.393 198.101 585.23 197.7 584.155"
            stroke="#EDEAEF" stroke-width="0.807701" stroke-linecap="round" stroke-linejoin="round" />
          <g id="Group 324_2">
            <path id="Vector_34" d="M199.303 578.731L195.369 574.786L191.436 578.731" stroke="#EDEAEF"
              stroke-width="0.807701" stroke-linecap="round" stroke-linejoin="round" />
            <path id="Vector_35" d="M195.369 582.676V574.786" stroke="#EDEAEF" stroke-width="0.807701"
              stroke-linecap="round" stroke-linejoin="round" />
          </g>
        </g>
        <g id="Group 329_2">
          <g id="Group 325_2">
            <path id="Vector_36" d="M280.925 581.69V592.538" stroke="#EDEAEF" stroke-width="0.807701"
              stroke-linecap="round" stroke-linejoin="round" />
            <path id="Vector_37"
              d="M283.384 583.662H279.696C279.24 583.662 278.802 583.844 278.479 584.168C278.156 584.492 277.975 584.931 277.975 585.388C277.975 585.846 278.156 586.285 278.479 586.609C278.802 586.932 279.24 587.114 279.696 587.114H282.155C282.611 587.114 283.049 587.296 283.371 587.62C283.694 587.943 283.876 588.382 283.876 588.84C283.876 589.298 283.694 589.737 283.371 590.061C283.049 590.384 282.611 590.566 282.155 590.566H277.975"
              stroke="#EDEAEF" stroke-width="0.807701" stroke-linecap="round" stroke-linejoin="round" />
          </g>
          <path id="Vector_38"
            d="M280.925 577.745C275.494 577.745 271.091 582.16 271.091 587.607C271.091 593.054 275.494 597.47 280.925 597.47C286.356 597.47 290.759 593.054 290.759 587.607C290.759 586.393 290.54 585.23 290.14 584.155"
            stroke="#EDEAEF" stroke-width="0.807701" stroke-linecap="round" stroke-linejoin="round" />
          <g id="Group 327_2">
            <path id="Vector_39" d="M283.875 578.731L287.809 582.676L291.743 578.731" stroke="#EDEAEF"
              stroke-width="0.807701" stroke-linecap="round" stroke-linejoin="round" />
            <path id="Vector_40" d="M287.809 574.786V582.676" stroke="#EDEAEF" stroke-width="0.807701"
              stroke-linecap="round" stroke-linejoin="round" />
          </g>
        </g>
        <g id="Group 330_2">
          <g id="Group 326_2">
            <path id="Vector_41" d="M373.589 580.703V588.758" stroke="#EDEAEF" stroke-width="0.807701"
              stroke-linecap="round" stroke-linejoin="round" />
            <path id="Vector_42"
              d="M375.414 582.168H372.676C372.337 582.168 372.012 582.303 371.773 582.543C371.533 582.783 371.398 583.109 371.398 583.449C371.398 583.789 371.533 584.115 371.773 584.355C372.012 584.595 372.337 584.73 372.676 584.73H374.501C374.84 584.73 375.165 584.865 375.405 585.106C375.644 585.346 375.779 585.672 375.779 586.012C375.779 586.352 375.644 586.678 375.405 586.918C375.165 587.158 374.84 587.293 374.501 587.293H371.398"
              stroke="#EDEAEF" stroke-width="0.807701" stroke-linecap="round" stroke-linejoin="round" />
          </g>
          <path id="Vector_43"
            d="M382.216 589.58C382.216 590.103 382.008 590.604 381.639 590.974C381.271 591.344 380.77 591.552 380.249 591.552H368.448L364.514 595.497V579.717C364.514 579.194 364.721 578.692 365.09 578.322C365.459 577.952 365.959 577.745 366.481 577.745H380.249C380.77 577.745 381.271 577.952 381.639 578.322C382.008 578.692 382.216 579.194 382.216 579.717V589.58Z"
            stroke="#EDEAEF" stroke-width="0.807701" stroke-linecap="round" stroke-linejoin="round" />
        </g>
        <rect id="Rectangle 429" x="447.956" y="566.896" width="16.7662" height="89.7483" rx="2.4231" fill="#9C4FB4" />
      </g>
    </g>
    <g id="fignu-screen-3" class="fignu-screen3">
      <path id="Vector_44" d="M303.543 137.736L309.444 143.653L315.344 137.736" stroke="#FBF9FC" stroke-width="0.986024"
        stroke-linecap="round" stroke-linejoin="round" />
      <rect id="Rectangle 427_3" x="178.706" y="229.415" width="260.31" height="260.31" rx="4.93012" fill="#FEFBFF" />
      <text id="Fatura atual" fill="#54B9C7" xml:space="preserve" style="white-space: pre" font-family="Source Sans Pro"
        font-size="11.8323" letter-spacing="0em">
        <tspan x="193.539" y="337.293">FATURA ATUAL </tspan>
      </text>
      <text id="Limite dispon&#195;&#173;vel" fill="#3C3B3D" xml:space="preserve" style="white-space: pre"
        font-family="Source Sans Pro" font-size="8.87422" letter-spacing="0em">
        <tspan x="193.539" y="383.819">Limite dispon&#xed;vel</tspan>
      </text>
      <text id="Cart&#195;&#163;o de cr&#195;&#169;dito" fill="#3C3B3D" xml:space="preserve" style="white-space: pre"
        font-family="Source Sans Pro" font-size="11.8323" letter-spacing="0em">
        <tspan x="232.308" y="256.523">Cart&#xe3;o de cr&#xe9;dito</tspan>
      </text>
      <g id="R$ 3050,64">
        <text fill="#54B9C7" xml:space="preserve" style="white-space: pre" font-family="Sora" font-size="23.6646"
          letter-spacing="0em">
          <tspan x="192.045" y="365.63">R$</tspan>
          <tspan x="295.301" y="365.63">,64</tspan>
        </text>
        <text fill="#54B9C7" xml:space="preserve" style="white-space: pre" font-family="Sora" font-size="23.6646"
          font-weight="bold" letter-spacing="0em">
          <tspan x="224.053" y="365.63"> 3050</tspan>
        </text>
      </g>
      <text id="R$ 15070,64" fill="#9EC249" xml:space="preserve" style="white-space: pre" font-family="Sora"
        font-size="8.87422" font-weight="bold" letter-spacing="0em">
        <tspan x="261.045" y="384.101">R$ 15070,64</tspan>
      </text>
      <g id="Group 324_3">
        <path id="Vector_45"
          d="M397.95 256.085C397.95 256.085 401.884 248.195 408.767 248.195C415.651 248.195 419.585 256.085 419.585 256.085C419.585 256.085 415.651 263.975 408.767 263.975C401.884 263.975 397.95 256.085 397.95 256.085Z"
          stroke="#3C3B3D" stroke-width="0.986024" stroke-linecap="round" stroke-linejoin="round" />
        <path id="Vector_46"
          d="M408.767 259.044C410.397 259.044 411.718 257.719 411.718 256.085C411.718 254.451 410.397 253.127 408.767 253.127C407.138 253.127 405.817 254.451 405.817 256.085C405.817 257.719 407.138 259.044 408.767 259.044Z"
          stroke="#3C3B3D" stroke-width="0.986024" stroke-linecap="round" stroke-linejoin="round" />
      </g>
      <circle id="Ellipse 16_2" cx="294.071" cy="506.487" r="2.95807" fill="#BB71D2" />
      <circle id="Ellipse 17_2" cx="309.848" cy="506.487" r="2.95807" fill="#EDEAEF" />
      <circle id="Ellipse 18_2" cx="325.624" cy="506.487" r="2.95807" fill="#BB71D2" />
      <g id="Group 325_3">
        <path id="Vector_47"
          d="M214.054 245.237H196.353C195.266 245.237 194.386 246.12 194.386 247.209V259.044C194.386 260.133 195.266 261.017 196.353 261.017H214.054C215.14 261.017 216.021 260.133 216.021 259.044V247.209C216.021 246.12 215.14 245.237 214.054 245.237Z"
          stroke="#3C3B3D" stroke-width="0.986024" stroke-linecap="round" stroke-linejoin="round" />
        <path id="Vector_48" d="M194.386 251.154H216.021" stroke="#3C3B3D" stroke-width="0.986024"
          stroke-linecap="round" stroke-linejoin="round" />
      </g>
      <path id="Rectangle 428_3"
        d="M178.706 430.563H439.017V484.795C439.017 487.518 436.809 489.725 434.087 489.725H183.636C180.914 489.725 178.706 487.518 178.706 484.795V430.563Z"
        fill="#EDEAEF" />
      <text id="Transfer&#195;&#170;ncia de R$ 500,00 feita para Juliana ontem_2" fill="#3C3B3D" xml:space="preserve"
        style="white-space: pre" font-family="Source Sans Pro" font-size="8.87422" letter-spacing="0em">
        <tspan x="237.868" y="458.453">Transfer&#xea;ncia de R$ 500,00 feita para Juliana&#10;</tspan>
        <tspan x="237.868" y="470.453">ontem</tspan>
      </text>
      <g id="Group 326_3">
        <path id="Vector_49" d="M208.153 456.293V467.142" stroke="#3C3B3D" stroke-width="0.986024"
          stroke-linecap="round" stroke-linejoin="round" />
        <path id="Vector_50"
          d="M210.612 458.266H206.924C206.468 458.266 206.03 458.448 205.707 458.771C205.384 459.095 205.203 459.534 205.203 459.992C205.203 460.449 205.384 460.888 205.707 461.212C206.03 461.536 206.468 461.718 206.924 461.718H209.383C209.839 461.718 210.277 461.899 210.599 462.223C210.922 462.547 211.104 462.986 211.104 463.444C211.104 463.901 210.922 464.34 210.599 464.664C210.277 464.988 209.839 465.169 209.383 465.169H205.203"
          stroke="#3C3B3D" stroke-width="0.986024" stroke-linecap="round" stroke-linejoin="round" />
      </g>
      <path id="Vector_51"
        d="M208.153 452.348C202.722 452.348 198.319 456.764 198.319 462.211C198.319 467.658 202.722 472.073 208.153 472.073C213.585 472.073 217.987 467.658 217.987 462.211C217.987 460.996 217.769 459.833 217.368 458.759"
        stroke="#3C3B3D" stroke-width="0.986024" stroke-linecap="round" stroke-linejoin="round" />
      <g id="Group 327_3">
        <path id="Vector_52" d="M218.971 453.334L215.037 449.389L211.104 453.334" stroke="#3C3B3D"
          stroke-width="0.986024" stroke-linecap="round" stroke-linejoin="round" />
        <path id="Vector_53" d="M215.037 457.279V449.389" stroke="#3C3B3D" stroke-width="0.986024"
          stroke-linecap="round" stroke-linejoin="round" />
      </g>
      <path id="Vector_54" d="M416.635 467.142L422.535 461.224L416.635 455.307" stroke="#3C3B3D" stroke-width="0.986024"
        stroke-linecap="round" stroke-linejoin="round" />
      <g id="Group 328_3">
        <g id="Group 32_3">
          <rect id="Rectangle 421_3" x="399.576" y="57.0723" width="2.57108" height="3.30567" rx="0.986024"
            fill="white" />
          <rect id="Rectangle 422_3" x="403.249" y="55.603" width="2.57108" height="4.77486" rx="0.986024"
            fill="white" />
          <rect id="Rectangle 423_3" x="406.922" y="53.7666" width="2.57108" height="6.61135" rx="0.986024"
            fill="white" />
          <rect id="Rectangle 424_3" x="410.595" y="51.9301" width="2.57108" height="8.44783" rx="0.986024"
            fill="white" />
        </g>
        <g id="Group 34_3">
          <path id="Vector 36_4"
            d="M448.877 58.2802V55.4404C449.666 55.9137 449.824 56.387 449.824 56.8603C449.824 57.3336 449.666 57.8069 448.877 58.2802Z"
            fill="white" fill-opacity="0.5" />
          <rect id="Rectangle 413_3" x="433.416" y="53.2317" width="14.5143" height="7.25714" rx="1.57764"
            stroke="white" stroke-opacity="0.5" stroke-width="0.631056" />
          <rect id="Rectangle 414_3" x="434.363" y="54.1782" width="12.6211" height="5.36397" rx="0.946583"
            fill="#FBF9FC" />
        </g>
        <g id="Group 33_3">
          <path id="Subtract_6" fill-rule="evenodd" clip-rule="evenodd"
            d="M428.423 54.4299L427.239 55.6133C426.096 54.5514 424.564 53.9021 422.88 53.9021C421.189 53.9021 419.652 54.5566 418.507 55.6259L417.324 54.4438C418.68 52.9026 420.666 51.9301 422.88 51.9301C425.087 51.9301 427.068 52.8968 428.423 54.4299Z"
            fill="white" />
          <path id="Subtract_7" fill-rule="evenodd" clip-rule="evenodd"
            d="M427.549 58.524C427.549 58.5238 427.549 58.5236 427.549 58.5234L427.548 58.524L427.549 58.524ZM420.532 57.9243L419.489 56.786C420.43 55.8596 421.738 55.3114 423.162 55.373C424.46 55.4293 425.62 55.9831 426.464 56.8425L425.309 57.9013C424.713 57.3809 423.943 57.0518 423.09 57.0149C422.113 56.9725 421.21 57.3221 420.532 57.9243Z"
            fill="white" />
          <path id="Vector 37_4"
            d="M422.88 60.3113L421.401 58.8323C421.872 58.3847 422.222 58.1749 422.88 58.1749C423.537 58.1749 423.884 58.3429 424.359 58.8323L422.88 60.3113Z"
            fill="white" />
        </g>
        <text id="22:31_3" fill="white" xml:space="preserve" style="white-space: pre" font-family="Cairo"
          font-size="12.8183" font-weight="bold" letter-spacing="0em">
          <tspan x="178.706" y="60.6915">22:31</tspan>
        </text>
      </g>
      <g id="Group 329_3">
        <text id="Talisson Barbosa_3" fill="#FBF9FC" xml:space="preserve" style="white-space: pre" font-family="Sora"
          font-size="14.5386" font-weight="bold" letter-spacing="0em">
          <tspan x="265.424" y="114.989">Talisson Barbosa</tspan>
        </text>
        <path id="Union_5" fill-rule="evenodd" clip-rule="evenodd"
          d="M228.246 100.838V99.3424C228.246 99.3414 228.247 99.3399 228.248 99.338C228.253 99.3212 228.27 99.2697 228.318 99.1861C228.392 99.0589 228.515 98.9005 228.698 98.7499C229.053 98.4591 229.667 98.1714 230.668 98.2449C234.845 98.5515 237.077 101.409 237.077 103.412V116.747C237.077 116.78 237.076 116.806 237.073 116.826C237.053 116.829 237.026 116.831 236.991 116.831H234.417C234.382 116.831 234.355 116.829 234.334 116.826C234.332 116.806 234.33 116.78 234.33 116.747V104.438C234.33 103.516 233.881 102.623 233.246 101.974C232.609 101.322 231.71 100.838 230.719 100.838H228.246ZM230.719 102.257H228.246V116.747C228.246 117.111 228.182 117.558 227.838 117.884C227.503 118.203 227.065 118.249 226.741 118.249H224.121C223.812 118.249 223.409 118.191 223.081 117.905C222.734 117.603 222.616 117.174 222.616 116.747V104.298C222.616 103.556 223.027 102.708 223.588 102.07C224.157 101.422 225.014 100.838 226.039 100.838H226.828V99.3095C226.828 99.0257 226.948 98.7241 227.09 98.4767C227.247 98.2054 227.48 97.9148 227.799 97.6534C228.449 97.1202 229.427 96.7318 230.771 96.8306C235.486 97.1767 238.495 100.478 238.495 103.412V116.747C238.495 117.097 238.417 117.508 238.111 117.827C237.799 118.151 237.38 118.249 236.991 118.249H234.417C234.028 118.249 233.608 118.151 233.297 117.827C232.991 117.508 232.912 117.097 232.912 116.747V104.438C232.912 103.966 232.669 103.413 232.232 102.965C231.798 102.521 231.246 102.257 230.719 102.257ZM226.039 102.257H226.828V116.747C226.828 116.778 226.827 116.805 226.826 116.828C226.802 116.83 226.774 116.831 226.741 116.831H224.121C224.086 116.831 224.059 116.829 224.038 116.827C224.036 116.807 224.034 116.78 224.034 116.747V104.298C224.034 104.015 224.231 103.487 224.653 103.006C225.066 102.536 225.566 102.257 226.039 102.257ZM250.642 118.205V119.701C250.641 119.702 250.641 119.703 250.64 119.705C250.635 119.722 250.618 119.773 250.569 119.857C250.496 119.984 250.373 120.143 250.189 120.293C249.835 120.584 249.221 120.872 248.22 120.798C244.043 120.492 241.81 117.634 241.81 115.631V102.296C241.81 102.263 241.812 102.237 241.814 102.217C241.835 102.214 241.862 102.213 241.897 102.213H244.471C244.506 102.213 244.533 102.214 244.554 102.217C244.556 102.237 244.557 102.263 244.557 102.296V114.605C244.557 115.528 245.007 116.42 245.641 117.069C246.278 117.721 247.177 118.205 248.168 118.205H250.642ZM248.168 116.787H250.642L250.642 102.296C250.642 101.932 250.706 101.485 251.049 101.159C251.384 100.84 251.823 100.794 252.146 100.794H254.767C255.075 100.794 255.479 100.853 255.806 101.138C256.153 101.44 256.272 101.869 256.272 102.296V114.745C256.272 115.487 255.86 116.335 255.3 116.973C254.73 117.622 253.873 118.205 252.849 118.205H252.06V119.734C252.06 120.018 251.94 120.319 251.797 120.566C251.64 120.838 251.407 121.128 251.089 121.39C250.439 121.923 249.461 122.311 248.116 122.213C243.401 121.867 240.392 118.565 240.392 115.631V102.296C240.392 101.946 240.471 101.535 240.777 101.216C241.089 100.892 241.508 100.794 241.897 100.794H244.471C244.86 100.794 245.279 100.892 245.591 101.216C245.897 101.535 245.976 101.946 245.976 102.296V114.605C245.976 115.077 246.218 115.63 246.656 116.078C247.09 116.523 247.642 116.787 248.168 116.787ZM252.849 116.787H252.06V102.296C252.06 102.265 252.061 102.238 252.062 102.215C252.086 102.213 252.114 102.213 252.146 102.213H254.767C254.801 102.213 254.829 102.214 254.85 102.217C254.852 102.237 254.854 102.263 254.854 102.296V114.745C254.854 115.028 254.657 115.556 254.234 116.037C253.821 116.507 253.321 116.787 252.849 116.787Z"
          fill="white" />
      </g>
      <g id="component-menu_2" clip-path="url(#clip2_12330_5542)">
        <rect id="Rectangle 426_3" x="169.835" y="566.897" width="82.0556" height="89.7483" rx="2.4231"
          fill="#9C4FB4" />
        <text id="Transferir_2" fill="#EDEAEF" xml:space="preserve" style="white-space: pre"
          font-family="Source Sans Pro" font-size="11.8349" letter-spacing="0em">
          <tspan x="178.711" y="646.669">Transferir</tspan>
        </text>
        <rect id="Rectangle 427_4" x="355.249" y="566.897" width="82.0556" height="89.7483" rx="2.4231"
          fill="#9C4FB4" />
        <text id="Cobrar_2" fill="#EDEAEF" xml:space="preserve" style="white-space: pre" font-family="Source Sans Pro"
          font-size="11.8349" letter-spacing="0em">
          <tspan x="363.964" y="646.788">Cobrar</tspan>
        </text>
        <rect id="Rectangle 428_4" x="262.542" y="566.897" width="82.0556" height="89.7483" rx="2.4231"
          fill="#9C4FB4" />
        <text id="Depositar_2" fill="#EDEAEF" xml:space="preserve" style="white-space: pre"
          font-family="Source Sans Pro" font-size="11.8349" letter-spacing="0em">
          <tspan x="271.418" y="646.669">Depositar </tspan>
        </text>
        <g id="Group 328_4">
          <g id="Group 323_3">
            <path id="Vector_55" d="M188.485 581.691V592.54" stroke="#EDEAEF" stroke-width="0.807701"
              stroke-linecap="round" stroke-linejoin="round" />
            <path id="Vector_56"
              d="M190.944 583.663H187.256C186.8 583.663 186.362 583.845 186.039 584.169C185.716 584.493 185.535 584.932 185.535 585.389C185.535 585.847 185.716 586.286 186.039 586.61C186.362 586.933 186.8 587.115 187.256 587.115H189.715C190.171 587.115 190.609 587.297 190.932 587.621C191.254 587.944 191.436 588.383 191.436 588.841C191.436 589.299 191.254 589.738 190.932 590.062C190.609 590.385 190.171 590.567 189.715 590.567H185.535"
              stroke="#EDEAEF" stroke-width="0.807701" stroke-linecap="round" stroke-linejoin="round" />
          </g>
          <path id="Vector_57"
            d="M188.485 577.746C183.054 577.746 178.651 582.161 178.651 587.608C178.651 593.055 183.054 597.471 188.485 597.471C193.917 597.471 198.319 593.055 198.319 587.608C198.319 586.394 198.101 585.231 197.7 584.156"
            stroke="#EDEAEF" stroke-width="0.807701" stroke-linecap="round" stroke-linejoin="round" />
          <g id="Group 324_4">
            <path id="Vector_58" d="M199.303 578.732L195.369 574.787L191.436 578.732" stroke="#EDEAEF"
              stroke-width="0.807701" stroke-linecap="round" stroke-linejoin="round" />
            <path id="Vector_59" d="M195.369 582.677V574.787" stroke="#EDEAEF" stroke-width="0.807701"
              stroke-linecap="round" stroke-linejoin="round" />
          </g>
        </g>
        <g id="Group 329_4">
          <g id="Group 325_4">
            <path id="Vector_60" d="M280.925 581.691V592.54" stroke="#EDEAEF" stroke-width="0.807701"
              stroke-linecap="round" stroke-linejoin="round" />
            <path id="Vector_61"
              d="M283.384 583.664H279.696C279.24 583.664 278.802 583.845 278.479 584.169C278.156 584.493 277.975 584.932 277.975 585.39C277.975 585.847 278.156 586.286 278.479 586.61C278.802 586.934 279.24 587.115 279.696 587.115H282.155C282.611 587.115 283.049 587.297 283.371 587.621C283.694 587.945 283.876 588.384 283.876 588.841C283.876 589.299 283.694 589.738 283.371 590.062C283.049 590.385 282.611 590.567 282.155 590.567H277.975"
              stroke="#EDEAEF" stroke-width="0.807701" stroke-linecap="round" stroke-linejoin="round" />
          </g>
          <path id="Vector_62"
            d="M280.925 577.746C275.494 577.746 271.091 582.161 271.091 587.608C271.091 593.055 275.494 597.471 280.925 597.471C286.356 597.471 290.759 593.055 290.759 587.608C290.759 586.394 290.54 585.231 290.14 584.156"
            stroke="#EDEAEF" stroke-width="0.807701" stroke-linecap="round" stroke-linejoin="round" />
          <g id="Group 327_4">
            <path id="Vector_63" d="M283.875 578.732L287.809 582.677L291.743 578.732" stroke="#EDEAEF"
              stroke-width="0.807701" stroke-linecap="round" stroke-linejoin="round" />
            <path id="Vector_64" d="M287.809 574.787V582.677" stroke="#EDEAEF" stroke-width="0.807701"
              stroke-linecap="round" stroke-linejoin="round" />
          </g>
        </g>
        <g id="Group 330_3">
          <g id="Group 326_4">
            <path id="Vector_65" d="M373.589 580.705V588.759" stroke="#EDEAEF" stroke-width="0.807701"
              stroke-linecap="round" stroke-linejoin="round" />
            <path id="Vector_66"
              d="M375.414 582.169H372.676C372.337 582.169 372.012 582.304 371.773 582.544C371.533 582.785 371.398 583.111 371.398 583.451C371.398 583.79 371.533 584.116 371.773 584.357C372.012 584.597 372.337 584.732 372.676 584.732H374.501C374.84 584.732 375.165 584.867 375.405 585.107C375.644 585.348 375.779 585.673 375.779 586.013C375.779 586.353 375.644 586.679 375.405 586.919C375.165 587.16 374.84 587.295 374.501 587.295H371.398"
              stroke="#EDEAEF" stroke-width="0.807701" stroke-linecap="round" stroke-linejoin="round" />
          </g>
          <path id="Vector_67"
            d="M382.216 589.581C382.216 590.104 382.008 590.606 381.639 590.976C381.271 591.345 380.77 591.553 380.249 591.553H368.448L364.514 595.498V579.718C364.514 579.195 364.721 578.693 365.09 578.324C365.459 577.954 365.959 577.746 366.481 577.746H380.249C380.77 577.746 381.271 577.954 381.639 578.324C382.008 578.693 382.216 579.195 382.216 579.718V589.581Z"
            stroke="#EDEAEF" stroke-width="0.807701" stroke-linecap="round" stroke-linejoin="round" />
        </g>
        <rect id="Rectangle 429_2" x="447.956" y="566.897" width="16.7662" height="89.7483" rx="2.4231"
          fill="#9C4FB4" />
      </g>
      <rect id="Rectangle 429_3" x="259.77" y="685.102" width="98.6245" height="4.93123" rx="2.46561" fill="#EDEAEF" />
    </g>
    <g id="fignu-screen-4" class="fignu-screen4">
      <path id="Vector_68" d="M303.351 137.736L309.252 143.653L315.152 137.736" stroke="#FBF9FC" stroke-width="0.986024"
        stroke-linecap="round" stroke-linejoin="round" />
      <rect id="Rectangle 428_5" x="178.514" y="229.415" width="260.31" height="260.31" rx="4.93012" fill="#FEFBFF" />
      <text id="Nubank rewards" fill="#211F21" xml:space="preserve" style="white-space: pre" font-family="Sora"
        font-size="11.8323" font-weight="bold" letter-spacing="0em">
        <tspan x="245.039" y="337.918">NUBANK REWARDS</tspan>
      </text>
      <text
        id="Acumule pontos que nunca expiram e troque por passagens a&#195;&#169;reas ou servi&#195;&#167;os que voc&#195;&#170; realmente usa."
        fill="#3C3B3D" xml:space="preserve" style="white-space: pre" font-family="Source Sans Pro" font-size="8.87422"
        letter-spacing="0em">
        <tspan x="221.094" y="363.627">Acumule pontos que nunca expiram e troque por&#10;</tspan>
        <tspan x="220.024" y="375.627">passagens a&#xe9;reas ou servi&#xe7;os que voc&#xea; realmente&#10;</tspan>
        <tspan x="303.658" y="387.627">usa.</tspan>
      </text>
      <circle id="Ellipse 16_3" cx="293.879" cy="506.487" r="2.95807" fill="#BB71D2" />
      <circle id="Ellipse 17_3" cx="309.655" cy="506.487" r="2.95807" fill="#BB71D2" />
      <circle id="Ellipse 18_3" cx="325.432" cy="506.487" r="2.95807" fill="#EDEAEF" />
      <text id="ative o seu rewards" fill="#82269E" xml:space="preserve" style="white-space: pre"
        font-family="Source Sans Pro" font-size="8.87422" font-weight="bold" letter-spacing="0em">
        <tspan x="264.298" y="458.453">ATIVE O SEU REWARDS</tspan>
      </text>
      <rect id="Rectangle 429_4" x="212.443" y="436.884" width="197.383" height="38.6333" rx="2.55422" stroke="#82269E"
        stroke-width="0.807701" />
      <g id="Group 323_4">
        <path id="Vector_69" d="M318.102 268.907V278.769H302.368V268.907" stroke="url(#paint2_linear_12330_5542)"
          stroke-width="0.986024" stroke-linecap="round" stroke-linejoin="round" />
        <path id="Vector_70" d="M320.069 263.975H300.401V268.907H320.069V263.975Z"
          stroke="url(#paint3_linear_12330_5542)" stroke-width="0.986024" stroke-linecap="round"
          stroke-linejoin="round" />
        <path id="Vector_71" d="M310.235 278.769V263.975" stroke="url(#paint4_linear_12330_5542)"
          stroke-width="0.986024" stroke-linecap="round" stroke-linejoin="round" />
        <path id="Vector_72"
          d="M310.235 263.975H305.81C305.158 263.975 304.532 263.716 304.071 263.253C303.61 262.791 303.351 262.164 303.351 261.51C303.351 260.856 303.61 260.229 304.071 259.766C304.532 259.304 305.158 259.044 305.81 259.044C309.252 259.044 310.235 263.975 310.235 263.975Z"
          stroke="url(#paint5_linear_12330_5542)" stroke-width="0.986024" stroke-linecap="round"
          stroke-linejoin="round" />
        <path id="Vector_73"
          d="M310.235 263.975H314.66C315.312 263.975 315.938 263.716 316.399 263.253C316.86 262.791 317.119 262.164 317.119 261.51C317.119 260.856 316.86 260.229 316.399 259.766C315.938 259.304 315.312 259.044 314.66 259.044C311.218 259.044 310.235 263.975 310.235 263.975Z"
          stroke="url(#paint6_linear_12330_5542)" stroke-width="0.986024" stroke-linecap="round"
          stroke-linejoin="round" />
      </g>
      <g id="Group 324_5">
        <g id="Group 32_4">
          <rect id="Rectangle 421_4" x="399.384" y="57.0723" width="2.57108" height="3.30567" rx="0.986024"
            fill="white" />
          <rect id="Rectangle 422_4" x="403.057" y="55.603" width="2.57108" height="4.77486" rx="0.986024"
            fill="white" />
          <rect id="Rectangle 423_4" x="406.73" y="53.7666" width="2.57108" height="6.61135" rx="0.986024"
            fill="white" />
          <rect id="Rectangle 424_4" x="410.403" y="51.9301" width="2.57108" height="8.44783" rx="0.986024"
            fill="white" />
        </g>
        <g id="Group 34_4">
          <path id="Vector 36_5"
            d="M448.685 58.2802V55.4404C449.474 55.9137 449.632 56.387 449.632 56.8603C449.632 57.3336 449.474 57.8069 448.685 58.2802Z"
            fill="white" fill-opacity="0.5" />
          <rect id="Rectangle 413_4" x="433.224" y="53.2317" width="14.5143" height="7.25714" rx="1.57764"
            stroke="white" stroke-opacity="0.5" stroke-width="0.631056" />
          <rect id="Rectangle 414_4" x="434.171" y="54.1782" width="12.6211" height="5.36397" rx="0.946583"
            fill="#FBF9FC" />
        </g>
        <g id="Group 33_4">
          <path id="Subtract_8" fill-rule="evenodd" clip-rule="evenodd"
            d="M428.231 54.4299L427.047 55.6133C425.903 54.5514 424.371 53.9021 422.688 53.9021C420.997 53.9021 419.46 54.5566 418.314 55.6259L417.132 54.4438C418.487 52.9026 420.474 51.9301 422.687 51.9301C424.894 51.9301 426.876 52.8968 428.231 54.4299Z"
            fill="white" />
          <path id="Subtract_9" fill-rule="evenodd" clip-rule="evenodd"
            d="M427.357 58.524C427.357 58.5238 427.357 58.5236 427.357 58.5234L427.356 58.524L427.357 58.524ZM420.34 57.9244L419.296 56.7861C420.238 55.8596 421.546 55.3114 422.97 55.373C424.268 55.4293 425.428 55.9831 426.272 56.8425L425.117 57.9013C424.521 57.3809 423.751 57.0518 422.898 57.0149C421.921 56.9725 421.018 57.3222 420.34 57.9244Z"
            fill="white" />
          <path id="Vector 37_5"
            d="M422.687 60.3112L421.208 58.8322C421.68 58.3845 422.03 58.1748 422.687 58.1748C423.345 58.1748 423.691 58.3428 424.166 58.8322L422.687 60.3112Z"
            fill="white" />
        </g>
        <text id="22:31_4" fill="white" xml:space="preserve" style="white-space: pre" font-family="Cairo"
          font-size="12.8183" font-weight="bold" letter-spacing="0em">
          <tspan x="178.514" y="60.6915">22:31</tspan>
        </text>
      </g>
      <g id="Group 325_5">
        <text id="Talisson Barbosa_4" fill="#FBF9FC" xml:space="preserve" style="white-space: pre" font-family="Sora"
          font-size="14.5386" font-weight="bold" letter-spacing="0em">
          <tspan x="265.232" y="114.989">Talisson Barbosa</tspan>
        </text>
        <path id="Union_6" fill-rule="evenodd" clip-rule="evenodd"
          d="M228.054 100.838V99.3424C228.054 99.3414 228.055 99.3399 228.055 99.338C228.061 99.3212 228.078 99.2697 228.126 99.1861C228.2 99.0589 228.322 98.9005 228.506 98.7499C228.861 98.4591 229.474 98.1714 230.475 98.2449C234.653 98.5515 236.885 101.409 236.885 103.412V116.747C236.885 116.78 236.883 116.806 236.881 116.826C236.861 116.829 236.833 116.831 236.799 116.831H234.225C234.19 116.831 234.163 116.829 234.142 116.826C234.14 116.806 234.138 116.78 234.138 116.747V104.438C234.138 103.516 233.689 102.623 233.054 101.974C232.417 101.322 231.518 100.838 230.527 100.838H228.054ZM230.527 102.257H228.054V116.747C228.054 117.111 227.99 117.558 227.646 117.884C227.311 118.203 226.873 118.249 226.549 118.249H223.928C223.62 118.249 223.217 118.191 222.889 117.905C222.542 117.603 222.424 117.174 222.424 116.747V104.298C222.424 103.556 222.835 102.708 223.396 102.07C223.965 101.422 224.822 100.838 225.847 100.838H226.636V99.3095C226.636 99.0257 226.755 98.7241 226.898 98.4767C227.055 98.2054 227.288 97.9148 227.607 97.6534C228.257 97.1202 229.234 96.7318 230.579 96.8306C235.294 97.1767 238.303 100.478 238.303 103.412V116.747C238.303 117.097 238.225 117.508 237.918 117.827C237.607 118.151 237.188 118.249 236.799 118.249H234.225C233.835 118.249 233.416 118.151 233.105 117.827C232.799 117.508 232.72 117.097 232.72 116.747V104.438C232.72 103.966 232.477 103.413 232.04 102.965C231.605 102.521 231.053 102.257 230.527 102.257ZM225.847 102.257H226.636V116.747C226.636 116.778 226.635 116.805 226.634 116.828C226.61 116.83 226.582 116.831 226.549 116.831H223.928C223.894 116.831 223.867 116.829 223.846 116.827C223.844 116.807 223.842 116.78 223.842 116.747V104.298C223.842 104.015 224.039 103.487 224.461 103.006C224.874 102.536 225.374 102.257 225.847 102.257ZM250.449 118.205V119.701C250.449 119.702 250.449 119.703 250.448 119.705C250.442 119.722 250.425 119.773 250.377 119.857C250.304 119.984 250.181 120.143 249.997 120.293C249.643 120.584 249.029 120.872 248.028 120.798C243.851 120.492 241.618 117.634 241.618 115.631V102.296C241.618 102.263 241.62 102.237 241.622 102.217C241.643 102.214 241.67 102.213 241.705 102.213H244.279C244.314 102.213 244.341 102.214 244.361 102.217C244.364 102.237 244.365 102.263 244.365 102.296V114.605C244.365 115.528 244.815 116.42 245.449 117.069C246.086 117.721 246.985 118.205 247.976 118.205H250.449ZM247.976 116.787H250.449L250.449 102.296C250.449 101.932 250.514 101.485 250.857 101.159C251.192 100.84 251.63 100.794 251.954 100.794H254.575C254.883 100.794 255.287 100.853 255.614 101.138C255.961 101.44 256.08 101.869 256.08 102.296V114.745C256.08 115.487 255.668 116.335 255.108 116.973C254.538 117.622 253.681 118.205 252.656 118.205H251.868V119.734C251.868 120.018 251.748 120.319 251.605 120.566C251.448 120.838 251.215 121.128 250.897 121.39C250.246 121.923 249.269 122.311 247.924 122.213C243.209 121.867 240.2 118.565 240.2 115.631V102.296C240.2 101.946 240.279 101.535 240.585 101.216C240.896 100.892 241.316 100.794 241.705 100.794H244.279C244.668 100.794 245.087 100.892 245.399 101.216C245.705 101.535 245.783 101.946 245.783 102.296V114.605C245.783 115.077 246.026 115.63 246.463 116.078C246.898 116.523 247.45 116.787 247.976 116.787ZM252.656 116.787H251.868V102.296C251.868 102.265 251.868 102.238 251.87 102.215C251.894 102.213 251.922 102.213 251.954 102.213H254.575C254.609 102.213 254.637 102.214 254.658 102.217C254.66 102.237 254.661 102.263 254.661 102.296V114.745C254.661 115.028 254.465 115.556 254.042 116.037C253.629 116.507 253.129 116.787 252.656 116.787Z"
          fill="white" />
      </g>
      <g id="component-menu_3" clip-path="url(#clip3_12330_5542)">
        <rect id="Rectangle 426_4" x="168.835" y="566.897" width="82.0556" height="89.7483" rx="2.4231"
          fill="#9C4FB4" />
        <text id="Transferir_3" fill="#EDEAEF" xml:space="preserve" style="white-space: pre"
          font-family="Source Sans Pro" font-size="11.8349" letter-spacing="0em">
          <tspan x="177.711" y="646.669">Transferir</tspan>
        </text>
        <rect id="Rectangle 427_5" x="354.249" y="566.897" width="82.0556" height="89.7483" rx="2.4231"
          fill="#9C4FB4" />
        <text id="Cobrar_3" fill="#EDEAEF" xml:space="preserve" style="white-space: pre" font-family="Source Sans Pro"
          font-size="11.8349" letter-spacing="0em">
          <tspan x="362.964" y="646.788">Cobrar</tspan>
        </text>
        <rect id="Rectangle 428_6" x="261.542" y="566.897" width="82.0556" height="89.7483" rx="2.4231"
          fill="#9C4FB4" />
        <text id="Depositar_3" fill="#EDEAEF" xml:space="preserve" style="white-space: pre"
          font-family="Source Sans Pro" font-size="11.8349" letter-spacing="0em">
          <tspan x="270.418" y="646.669">Depositar </tspan>
        </text>
        <g id="Group 328_5">
          <g id="Group 323_5">
            <path id="Vector_74" d="M187.485 581.691V592.54" stroke="#EDEAEF" stroke-width="0.807701"
              stroke-linecap="round" stroke-linejoin="round" />
            <path id="Vector_75"
              d="M189.944 583.663H186.256C185.8 583.663 185.362 583.845 185.039 584.169C184.716 584.493 184.535 584.932 184.535 585.389C184.535 585.847 184.716 586.286 185.039 586.61C185.362 586.933 185.8 587.115 186.256 587.115H188.715C189.171 587.115 189.609 587.297 189.932 587.621C190.254 587.944 190.436 588.383 190.436 588.841C190.436 589.299 190.254 589.738 189.932 590.062C189.609 590.385 189.171 590.567 188.715 590.567H184.535"
              stroke="#EDEAEF" stroke-width="0.807701" stroke-linecap="round" stroke-linejoin="round" />
          </g>
          <path id="Vector_76"
            d="M187.485 577.746C182.054 577.746 177.651 582.161 177.651 587.608C177.651 593.055 182.054 597.471 187.485 597.471C192.917 597.471 197.319 593.055 197.319 587.608C197.319 586.394 197.101 585.231 196.7 584.156"
            stroke="#EDEAEF" stroke-width="0.807701" stroke-linecap="round" stroke-linejoin="round" />
          <g id="Group 324_6">
            <path id="Vector_77" d="M198.303 578.732L194.369 574.787L190.436 578.732" stroke="#EDEAEF"
              stroke-width="0.807701" stroke-linecap="round" stroke-linejoin="round" />
            <path id="Vector_78" d="M194.369 582.677V574.787" stroke="#EDEAEF" stroke-width="0.807701"
              stroke-linecap="round" stroke-linejoin="round" />
          </g>
        </g>
        <g id="Group 329_5">
          <g id="Group 325_6">
            <path id="Vector_79" d="M279.925 581.691V592.54" stroke="#EDEAEF" stroke-width="0.807701"
              stroke-linecap="round" stroke-linejoin="round" />
            <path id="Vector_80"
              d="M282.384 583.664H278.696C278.24 583.664 277.802 583.846 277.479 584.169C277.156 584.493 276.975 584.932 276.975 585.39C276.975 585.848 277.156 586.287 277.479 586.61C277.802 586.934 278.24 587.116 278.696 587.116H281.155C281.611 587.116 282.049 587.298 282.371 587.621C282.694 587.945 282.876 588.384 282.876 588.842C282.876 589.299 282.694 589.738 282.371 590.062C282.049 590.386 281.611 590.568 281.155 590.568H276.975"
              stroke="#EDEAEF" stroke-width="0.807701" stroke-linecap="round" stroke-linejoin="round" />
          </g>
          <path id="Vector_81"
            d="M279.925 577.746C274.494 577.746 270.091 582.162 270.091 587.609C270.091 593.055 274.494 597.471 279.925 597.471C285.356 597.471 289.759 593.055 289.759 587.609C289.759 586.394 289.54 585.231 289.14 584.157"
            stroke="#EDEAEF" stroke-width="0.807701" stroke-linecap="round" stroke-linejoin="round" />
          <g id="Group 327_5">
            <path id="Vector_82" d="M282.875 578.732L286.809 582.677L290.743 578.732" stroke="#EDEAEF"
              stroke-width="0.807701" stroke-linecap="round" stroke-linejoin="round" />
            <path id="Vector_83" d="M286.809 574.787V582.677" stroke="#EDEAEF" stroke-width="0.807701"
              stroke-linecap="round" stroke-linejoin="round" />
          </g>
        </g>
        <g id="Group 330_4">
          <g id="Group 326_5">
            <path id="Vector_84" d="M372.589 580.705V588.759" stroke="#EDEAEF" stroke-width="0.807701"
              stroke-linecap="round" stroke-linejoin="round" />
            <path id="Vector_85"
              d="M374.414 582.169H371.676C371.337 582.169 371.012 582.304 370.773 582.544C370.533 582.785 370.398 583.111 370.398 583.451C370.398 583.79 370.533 584.116 370.773 584.357C371.012 584.597 371.337 584.732 371.676 584.732H373.501C373.84 584.732 374.165 584.867 374.405 585.107C374.644 585.348 374.779 585.673 374.779 586.013C374.779 586.353 374.644 586.679 374.405 586.919C374.165 587.16 373.84 587.295 373.501 587.295H370.398"
              stroke="#EDEAEF" stroke-width="0.807701" stroke-linecap="round" stroke-linejoin="round" />
          </g>
          <path id="Vector_86"
            d="M381.216 589.581C381.216 590.104 381.008 590.606 380.639 590.976C380.271 591.345 379.77 591.553 379.249 591.553H367.448L363.514 595.498V579.718C363.514 579.195 363.721 578.693 364.09 578.324C364.459 577.954 364.959 577.746 365.481 577.746H379.249C379.77 577.746 380.271 577.954 380.639 578.324C381.008 578.693 381.216 579.195 381.216 579.718V589.581Z"
            stroke="#EDEAEF" stroke-width="0.807701" stroke-linecap="round" stroke-linejoin="round" />
        </g>
        <rect id="Rectangle 429_5" x="446.956" y="566.897" width="16.7662" height="89.7483" rx="2.4231"
          fill="#9C4FB4" />
      </g>
      <rect id="Rectangle 430" x="259.578" y="685.102" width="98.6245" height="4.93123" rx="2.46561" fill="#EDEAEF" />
    </g>
    <g id="icon-2" class="figicon2">
      <g id="Rectangle 879" filter="url(#filter2_dddd_12330_5542)">
        <rect x="30" y="157" width="140" height="140" rx="32.3077" fill="#FEFBFF" />
      </g>
      <path id="Vector_87" d="M100 257C100 257 124 245 124 227V206L100 197L76 206V227C76 245 100 257 100 257Z"
        stroke="url(#paint7_linear_12330_5542)" stroke-width="5.96174" stroke-linecap="round" stroke-linejoin="round" />
    </g>

    <g id="icon3" class="figicon3">
      <g id="Rectangle 884" filter="url(#filter3_dddd_12330_5542)">
        <rect x="437" y="146" width="140" height="140" rx="32.3077" fill="#FEFBFF" />
      </g>
      <g id="Group 289">
        <path id="Vector_88" d="M507 183V249" stroke="url(#paint8_linear_12330_5542)" stroke-width="5.96174"
          stroke-linecap="round" stroke-linejoin="round" />
        <path id="Vector_89"
          d="M522 195H499.5C496.715 195 494.045 196.106 492.075 198.075C490.106 200.044 489 202.715 489 205.5C489 208.285 490.106 210.955 492.075 212.924C494.045 214.894 496.715 216 499.5 216H514.5C517.285 216 519.955 217.106 521.925 219.075C523.894 221.044 525 223.715 525 226.5C525 229.285 523.894 231.955 521.925 233.924C519.955 235.894 517.285 237 514.5 237H489"
          stroke="url(#paint9_linear_12330_5542)" stroke-width="5.96174" stroke-linecap="round"
          stroke-linejoin="round" />
      </g>
    </g>

    <g id="icon-1" class="figicon1">
      <g id="Rectangle 890" filter="url(#filter4_dddd_12330_5542)">
        <rect x="442" y="507" width="140" height="140" rx="32.3077" fill="#FEFBFF" />
      </g>
      <path id="Vector_90" d="M536 560L503 593L488 578" stroke="url(#paint10_linear_12330_5542)" stroke-width="5.96174"
        stroke-linecap="round" stroke-linejoin="round" />
    </g>
  </g>
  <defs>
    <filter id="filter0_d_12330_5542" x="461" y="165" width="13.2841" height="83.0707" filterUnits="userSpaceOnUse"
      color-interpolation-filters="sRGB">
      <feFlood flood-opacity="0" result="BackgroundImageFix" />
      <feColorMatrix in="SourceAlpha" type="matrix" values="0 0 0 0 0 0 0 0 0 0 0 0 0 0 0 0 0 0 127 0"
        result="hardAlpha" />
      <feOffset dx="-2" />
      <feGaussianBlur stdDeviation="2.5" />
      <feColorMatrix type="matrix" values="0 0 0 0 0 0 0 0 0 0 0 0 0 0 0 0 0 0 0.12 0" />
      <feBlend mode="normal" in2="BackgroundImageFix" result="effect1_dropShadow_12330_5542" />
      <feBlend mode="normal" in="SourceGraphic" in2="effect1_dropShadow_12330_5542" result="shape" />
    </filter>
    <filter id="filter1_dddd_12330_5542" x="62" y="2" width="488" height="846" filterUnits="userSpaceOnUse"
      color-interpolation-filters="sRGB">
      <feFlood flood-opacity="0" result="BackgroundImageFix" />
      <feColorMatrix in="SourceAlpha" type="matrix" values="0 0 0 0 0 0 0 0 0 0 0 0 0 0 0 0 0 0 127 0"
        result="hardAlpha" />
      <feOffset dy="2.30969" />
      <feGaussianBlur stdDeviation="1.81152" />
      <feColorMatrix type="matrix" values="0 0 0 0 0.662745 0 0 0 0 0.313726 0 0 0 0 0.768627 0 0 0 0.0278729 0" />
      <feBlend mode="normal" in2="BackgroundImageFix" result="effect1_dropShadow_12330_5542" />
      <feColorMatrix in="SourceAlpha" type="matrix" values="0 0 0 0 0 0 0 0 0 0 0 0 0 0 0 0 0 0 127 0"
        result="hardAlpha" />
      <feOffset dy="6.38599" />
      <feGaussianBlur stdDeviation="5.00862" />
      <feColorMatrix type="matrix" values="0 0 0 0 0.662745 0 0 0 0 0.313726 0 0 0 0 0.768627 0 0 0 0.04 0" />
      <feBlend mode="normal" in2="effect1_dropShadow_12330_5542" result="effect2_dropShadow_12330_5542" />
      <feColorMatrix in="SourceAlpha" type="matrix" values="0 0 0 0 0 0 0 0 0 0 0 0 0 0 0 0 0 0 127 0"
        result="hardAlpha" />
      <feOffset dy="15.375" />
      <feGaussianBlur stdDeviation="12.0588" />
      <feColorMatrix type="matrix" values="0 0 0 0 0.662745 0 0 0 0 0.313726 0 0 0 0 0.768627 0 0 0 0.0521271 0" />
      <feBlend mode="normal" in2="effect2_dropShadow_12330_5542" result="effect3_dropShadow_12330_5542" />
      <feColorMatrix in="SourceAlpha" type="matrix" values="0 0 0 0 0 0 0 0 0 0 0 0 0 0 0 0 0 0 127 0"
        result="hardAlpha" />
      <feOffset dy="51" />
      <feGaussianBlur stdDeviation="40" />
      <feColorMatrix type="matrix" values="0 0 0 0 0.662745 0 0 0 0 0.313726 0 0 0 0 0.768627 0 0 0 0.08 0" />
      <feBlend mode="normal" in2="effect3_dropShadow_12330_5542" result="effect4_dropShadow_12330_5542" />
      <feBlend mode="normal" in="SourceGraphic" in2="effect4_dropShadow_12330_5542" result="shape" />
    </filter>
    <filter id="filter2_dddd_12330_5542" x="-50" y="128" width="300" height="300" filterUnits="userSpaceOnUse"
      color-interpolation-filters="sRGB">
      <feFlood flood-opacity="0" result="BackgroundImageFix" />
      <feColorMatrix in="SourceAlpha" type="matrix" values="0 0 0 0 0 0 0 0 0 0 0 0 0 0 0 0 0 0 127 0"
        result="hardAlpha" />
      <feOffset dy="2.30969" />
      <feGaussianBlur stdDeviation="1.81152" />
      <feColorMatrix type="matrix" values="0 0 0 0 0.662745 0 0 0 0 0.313726 0 0 0 0 0.768627 0 0 0 0.0278729 0" />
      <feBlend mode="normal" in2="BackgroundImageFix" result="effect1_dropShadow_12330_5542" />
      <feColorMatrix in="SourceAlpha" type="matrix" values="0 0 0 0 0 0 0 0 0 0 0 0 0 0 0 0 0 0 127 0"
        result="hardAlpha" />
      <feOffset dy="6.38599" />
      <feGaussianBlur stdDeviation="5.00862" />
      <feColorMatrix type="matrix" values="0 0 0 0 0.662745 0 0 0 0 0.313726 0 0 0 0 0.768627 0 0 0 0.04 0" />
      <feBlend mode="normal" in2="effect1_dropShadow_12330_5542" result="effect2_dropShadow_12330_5542" />
      <feColorMatrix in="SourceAlpha" type="matrix" values="0 0 0 0 0 0 0 0 0 0 0 0 0 0 0 0 0 0 127 0"
        result="hardAlpha" />
      <feOffset dy="15.375" />
      <feGaussianBlur stdDeviation="12.0588" />
      <feColorMatrix type="matrix" values="0 0 0 0 0.662745 0 0 0 0 0.313726 0 0 0 0 0.768627 0 0 0 0.0521271 0" />
      <feBlend mode="normal" in2="effect2_dropShadow_12330_5542" result="effect3_dropShadow_12330_5542" />
      <feColorMatrix in="SourceAlpha" type="matrix" values="0 0 0 0 0 0 0 0 0 0 0 0 0 0 0 0 0 0 127 0"
        result="hardAlpha" />
      <feOffset dy="51" />
      <feGaussianBlur stdDeviation="40" />
      <feColorMatrix type="matrix" values="0 0 0 0 0.662745 0 0 0 0 0.313726 0 0 0 0 0.768627 0 0 0 0.08 0" />
      <feBlend mode="normal" in2="effect3_dropShadow_12330_5542" result="effect4_dropShadow_12330_5542" />
      <feBlend mode="normal" in="SourceGraphic" in2="effect4_dropShadow_12330_5542" result="shape" />
    </filter>
    <filter id="filter3_dddd_12330_5542" x="357" y="117" width="300" height="300" filterUnits="userSpaceOnUse"
      color-interpolation-filters="sRGB">
      <feFlood flood-opacity="0" result="BackgroundImageFix" />
      <feColorMatrix in="SourceAlpha" type="matrix" values="0 0 0 0 0 0 0 0 0 0 0 0 0 0 0 0 0 0 127 0"
        result="hardAlpha" />
      <feOffset dy="2.30969" />
      <feGaussianBlur stdDeviation="1.81152" />
      <feColorMatrix type="matrix" values="0 0 0 0 0.662745 0 0 0 0 0.313726 0 0 0 0 0.768627 0 0 0 0.0278729 0" />
      <feBlend mode="normal" in2="BackgroundImageFix" result="effect1_dropShadow_12330_5542" />
      <feColorMatrix in="SourceAlpha" type="matrix" values="0 0 0 0 0 0 0 0 0 0 0 0 0 0 0 0 0 0 127 0"
        result="hardAlpha" />
      <feOffset dy="6.38599" />
      <feGaussianBlur stdDeviation="5.00862" />
      <feColorMatrix type="matrix" values="0 0 0 0 0.662745 0 0 0 0 0.313726 0 0 0 0 0.768627 0 0 0 0.04 0" />
      <feBlend mode="normal" in2="effect1_dropShadow_12330_5542" result="effect2_dropShadow_12330_5542" />
      <feColorMatrix in="SourceAlpha" type="matrix" values="0 0 0 0 0 0 0 0 0 0 0 0 0 0 0 0 0 0 127 0"
        result="hardAlpha" />
      <feOffset dy="15.375" />
      <feGaussianBlur stdDeviation="12.0588" />
      <feColorMatrix type="matrix" values="0 0 0 0 0.662745 0 0 0 0 0.313726 0 0 0 0 0.768627 0 0 0 0.0521271 0" />
      <feBlend mode="normal" in2="effect2_dropShadow_12330_5542" result="effect3_dropShadow_12330_5542" />
      <feColorMatrix in="SourceAlpha" type="matrix" values="0 0 0 0 0 0 0 0 0 0 0 0 0 0 0 0 0 0 127 0"
        result="hardAlpha" />
      <feOffset dy="51" />
      <feGaussianBlur stdDeviation="40" />
      <feColorMatrix type="matrix" values="0 0 0 0 0.662745 0 0 0 0 0.313726 0 0 0 0 0.768627 0 0 0 0.08 0" />
      <feBlend mode="normal" in2="effect3_dropShadow_12330_5542" result="effect4_dropShadow_12330_5542" />
      <feBlend mode="normal" in="SourceGraphic" in2="effect4_dropShadow_12330_5542" result="shape" />
    </filter>
    <filter id="filter4_dddd_12330_5542" x="362" y="478" width="300" height="300" filterUnits="userSpaceOnUse"
      color-interpolation-filters="sRGB">
      <feFlood flood-opacity="0" result="BackgroundImageFix" />
      <feColorMatrix in="SourceAlpha" type="matrix" values="0 0 0 0 0 0 0 0 0 0 0 0 0 0 0 0 0 0 127 0"
        result="hardAlpha" />
      <feOffset dy="2.30969" />
      <feGaussianBlur stdDeviation="1.81152" />
      <feColorMatrix type="matrix" values="0 0 0 0 0.662745 0 0 0 0 0.313726 0 0 0 0 0.768627 0 0 0 0.0278729 0" />
      <feBlend mode="normal" in2="BackgroundImageFix" result="effect1_dropShadow_12330_5542" />
      <feColorMatrix in="SourceAlpha" type="matrix" values="0 0 0 0 0 0 0 0 0 0 0 0 0 0 0 0 0 0 127 0"
        result="hardAlpha" />
      <feOffset dy="6.38599" />
      <feGaussianBlur stdDeviation="5.00862" />
      <feColorMatrix type="matrix" values="0 0 0 0 0.662745 0 0 0 0 0.313726 0 0 0 0 0.768627 0 0 0 0.04 0" />
      <feBlend mode="normal" in2="effect1_dropShadow_12330_5542" result="effect2_dropShadow_12330_5542" />
      <feColorMatrix in="SourceAlpha" type="matrix" values="0 0 0 0 0 0 0 0 0 0 0 0 0 0 0 0 0 0 127 0"
        result="hardAlpha" />
      <feOffset dy="15.375" />
      <feGaussianBlur stdDeviation="12.0588" />
      <feColorMatrix type="matrix" values="0 0 0 0 0.662745 0 0 0 0 0.313726 0 0 0 0 0.768627 0 0 0 0.0521271 0" />
      <feBlend mode="normal" in2="effect2_dropShadow_12330_5542" result="effect3_dropShadow_12330_5542" />
      <feColorMatrix in="SourceAlpha" type="matrix" values="0 0 0 0 0 0 0 0 0 0 0 0 0 0 0 0 0 0 127 0"
        result="hardAlpha" />
      <feOffset dy="51" />
      <feGaussianBlur stdDeviation="40" />
      <feColorMatrix type="matrix" values="0 0 0 0 0.662745 0 0 0 0 0.313726 0 0 0 0 0.768627 0 0 0 0.08 0" />
      <feBlend mode="normal" in2="effect3_dropShadow_12330_5542" result="effect4_dropShadow_12330_5542" />
      <feBlend mode="normal" in="SourceGraphic" in2="effect4_dropShadow_12330_5542" result="shape" />
    </filter>
    <linearGradient id="paint0_linear_12330_5542" x1="306.5" y1="672" x2="306.5" y2="956"
      gradientUnits="userSpaceOnUse">
      <stop stop-color="#82269E" />
      <stop offset="1" stop-color="#82269E" stop-opacity="0" />
    </linearGradient>
    <linearGradient id="paint1_linear_12330_5542" x1="413.26" y1="131.045" x2="47.1891" y2="325.893"
      gradientUnits="userSpaceOnUse">
      <stop stop-color="#A950C4" />
      <stop offset="1" stop-color="#82269E" />
    </linearGradient>
    <linearGradient id="paint2_linear_12330_5542" x1="315.663" y1="270.238" x2="310.186" y2="280.31"
      gradientUnits="userSpaceOnUse">
      <stop stop-color="#A950C4" />
      <stop offset="1" stop-color="#82269E" />
    </linearGradient>
    <linearGradient id="paint3_linear_12330_5542" x1="317.02" y1="264.641" x2="315.665" y2="270.871"
      gradientUnits="userSpaceOnUse">
      <stop stop-color="#A950C4" />
      <stop offset="1" stop-color="#82269E" />
    </linearGradient>
    <linearGradient id="paint4_linear_12330_5542" x1="311.08" y1="265.972" x2="309.564" y2="266.091"
      gradientUnits="userSpaceOnUse">
      <stop stop-color="#A950C4" />
      <stop offset="1" stop-color="#82269E" />
    </linearGradient>
    <linearGradient id="paint5_linear_12330_5542" x1="309.168" y1="259.71" x2="306.243" y2="264.417"
      gradientUnits="userSpaceOnUse">
      <stop stop-color="#A950C4" />
      <stop offset="1" stop-color="#82269E" />
    </linearGradient>
    <linearGradient id="paint6_linear_12330_5542" x1="316.052" y1="259.71" x2="313.126" y2="264.417"
      gradientUnits="userSpaceOnUse">
      <stop stop-color="#A950C4" />
      <stop offset="1" stop-color="#82269E" />
    </linearGradient>
    <linearGradient id="paint7_linear_12330_5542" x1="116.56" y1="205.1" x2="76.9927" y2="241.586"
      gradientUnits="userSpaceOnUse">
      <stop stop-color="#A950C4" />
      <stop offset="1" stop-color="#82269E" />
    </linearGradient>
    <linearGradient id="paint8_linear_12330_5542" x1="507.845" y1="191.91" x2="506.32" y2="191.937"
      gradientUnits="userSpaceOnUse">
      <stop stop-color="#A950C4" />
      <stop offset="1" stop-color="#82269E" />
    </linearGradient>
    <linearGradient id="paint9_linear_12330_5542" x1="519.42" y1="200.67" x2="491.634" y2="228.123"
      gradientUnits="userSpaceOnUse">
      <stop stop-color="#A950C4" />
      <stop offset="1" stop-color="#82269E" />
    </linearGradient>
    <linearGradient id="paint10_linear_12330_5542" x1="528.56" y1="564.455" x2="509.349" y2="596.664"
      gradientUnits="userSpaceOnUse">
      <stop stop-color="#A950C4" />
      <stop offset="1" stop-color="#82269E" />
    </linearGradient>
    <clipPath id="clip0_12330_5542">
      <rect width="600" height="956" fill="white" />
    </clipPath>
    <clipPath id="clip1_12330_5542">
      <rect width="302.888" height="89.6548" fill="white" transform="translate(158 566.896)" />
    </clipPath>
    <clipPath id="clip2_12330_5542">
      <rect width="302.888" height="89.6548" fill="white" transform="translate(158 566.897)" />
    </clipPath>
    <clipPath id="clip3_12330_5542">
      <rect width="302.888" height="89.6548" fill="white" transform="translate(157 566.897)" />
    </clipPath>
  </defs>
</svg>