<svg width="55" height="41" viewBox="0 0 55 41" fill="none" xmlns="http://www.w3.org/2000/svg">
  <g id="logonu">
    <path id="logonu-letter-n"
      d="M1.22607 12.2845V32.6062C1.22607 33.5957 1.76085 33.9001 2.52484 33.9001H6.80317C7.71995 33.9001 8.10195 33.5957 8.10197 32.6062V4.14042C8.10197 3.45541 9.46757 0.966999 13.2971 1.24811C20.555 1.78089 24.8333 6.80814 24.8333 10.8383V32.6062C24.8333 33.4434 24.4513 33.9001 23.5345 33.9001H19.3326C18.4158 33.9001 18.0338 33.4434 18.0338 32.6062V12.5127C18.0338 10.2356 15.7735 7.79379 13.2971 7.79379H5.65674C3.21196 7.79379 1.22607 10.61 1.22607 12.2845Z"
      stroke="url(#paint0_linear_12300_24069)" />
    <path id="logonu-letter-u"
      d="M53.8521 29.3378L53.8521 9.01611C53.8521 8.02665 53.3173 7.72221 52.5533 7.72221H48.275C47.3582 7.72221 46.9762 8.02665 46.9762 9.01611V37.4819C46.9762 38.1669 45.6106 40.6553 41.7811 40.3742C34.5232 39.8414 30.2449 34.8142 30.2449 30.7841L30.2449 9.01611C30.2449 8.17888 30.6269 7.72221 31.5436 7.72221H35.7456C36.6624 7.72221 37.0443 8.17888 37.0443 9.01611V29.1096C37.0443 31.3868 39.3046 33.8285 41.7811 33.8285H49.4214C51.8662 33.8285 53.8521 31.0123 53.8521 29.3378Z"
      stroke="url(#paint1_linear_12300_24069)" />
  </g>
  <defs>
    <linearGradient id="paint0_linear_12300_24069" x1="21.1742" y1="5.63707" x2="-0.0869059" y2="23.3436"
      gradientUnits="userSpaceOnUse">
      <stop stop-color="#A950C4" />
      <stop offset="1" stop-color="#82269E" />
    </linearGradient>
    <linearGradient id="paint1_linear_12300_24069" x1="33.904" y1="35.9852" x2="55.1651" y2="18.2787"
      gradientUnits="userSpaceOnUse">
      <stop stop-color="#A950C4" />
      <stop offset="1" stop-color="#82269E" />
    </linearGradient>
  </defs>
</svg>